<?xml version="1.0" encoding="utf-8"?>
<!-- Generator: Adobe Illustrator 24.0.3, SVG Export Plug-In . SVG Version: 6.00 Build 0)  -->
<svg version="1.1" id="Layer_1" xmlns="http://www.w3.org/2000/svg" xmlns:xlink="http://www.w3.org/1999/xlink" x="0px" y="0px"
	 viewBox="0 0 475.3 139.9" enable-background="new 0 0 475.3 139.9" xml:space="preserve">
<title>CA-Logo_CLR_Horz</title>
<path fill="#FFFFFF" d="M246.3,32c6.1-0.1,11.9,2.9,15.2,8.1l-4.3,3.1c-2.3-3.8-6.4-6.1-10.9-6.1c-7.2,0-13,5.8-13,13s5.8,13,13,13
	c4.4,0.1,8.6-2.3,10.9-6.1l4.3,3.1c-3.3,5.2-9.1,8.3-15.2,8.1c-10.1,0.2-18.9-8.1-18.7-18.2C227.4,40,236.2,31.8,246.3,32z"/>
<path fill="#FFFFFF" d="M286.4,67.7h-5.3v-2.9c-2.1,2.4-5.2,3.7-8.5,3.5c-5.5,0-9.2-3-9.2-7.6s3.8-7.5,9.7-7.5h7.5v-1.7
	c0-3.6-2-5.6-5.6-5.6c-3,0-5.1,1.3-7.3,3.9l-3.3-3.3c2.5-3.6,6.7-5.7,11.1-5.6c6.5,0,10.8,3.9,10.8,10.9L286.4,67.7z M280.7,57.3
	h-6.8c-3,0-4.7,1.1-4.7,3.2s1.9,3.5,4.6,3.5c3.8,0,6.8-2.6,6.8-6.2V57.3z"/>
<path fill="#FFFFFF" d="M330.8,67.7h-5.7V52.1c0-3.7-2.1-6.1-5.5-6.1c-3.1-0.1-5.7,2.3-5.8,5.3c0,0.2,0,0.3,0,0.5v15.8h-5.6V52.1
	c0-3.6-2.1-6.1-5.5-6.1s-5.8,2.5-5.8,6.1v15.5h-5.6V41.5h5.3V44c2-2,4.8-3.1,7.6-3c3.2-0.2,6.3,1.4,8,4.1c2.2-2.7,5.5-4.2,8.9-4.1
	c6.1,0,9.8,4.1,9.8,10.4L330.8,67.7z"/>
<path fill="#FFFFFF" d="M351.1,68.3c-3.6,0.2-7-1.4-9.2-4.2v3.6h-5.2V31.8h5.6v13c2.2-2.5,5.5-3.9,8.8-3.8c7.5,0,13,5.9,13,13.7
	S358.5,68.3,351.1,68.3z M350.1,46.1c-4.1,0-8,2.8-8,8.6s3.8,8.5,8,8.5c4.6,0,8.1-3.6,8.1-8.6S354.6,46.1,350.1,46.1L350.1,46.1z"/>
<path fill="#FFFFFF" d="M371.3,28.1c2.1,0,3.8,1.6,3.8,3.7c0,2.1-1.7,3.9-3.9,3.9s-3.9-1.7-3.9-3.9l0,0
	C367.5,29.7,369.2,28,371.3,28.1C371.3,28.1,371.3,28.1,371.3,28.1z M368.5,41.5h5.6v26.1h-5.6V41.5z"/>
<path fill="#FFFFFF" d="M380,41.5h5.6v15.6c0,3.3,2.6,5.9,5.9,5.9s5.9-2.6,5.9-5.9V41.5h5.7v15.2c0,7-5,11.5-11.5,11.5
	c-6.6,0-11.6-4.5-11.6-11.5L380,41.5z"/>
<path fill="#FFFFFF" d="M448.5,67.7h-5.7V52.1c0-3.7-2.1-6.1-5.5-6.1c-3.1-0.1-5.7,2.3-5.8,5.3c0,0.2,0,0.3,0,0.5v15.8h-5.6V52.1
	c0-3.6-2.2-6.1-5.5-6.1s-5.8,2.5-5.8,6.1v15.5h-5.7V41.5h5.3V44c2-2,4.8-3.1,7.6-3c3.2-0.2,6.3,1.4,8,4.1c2.2-2.7,5.5-4.2,8.9-4.1
	c6.1,0,9.8,4.1,9.8,10.4L448.5,67.7z"/>
<path fill="#005E9E" d="M246.3,32c6.1-0.1,11.9,2.9,15.2,8.1l-4.3,3.1c-2.3-3.8-6.4-6.1-10.9-6.1c-7.2,0-13,5.8-13,13s5.8,13,13,13
	c4.4,0.1,8.6-2.3,10.9-6.1l4.3,3.1c-3.3,5.2-9.1,8.3-15.2,8.1c-10.1,0.2-18.9-8.1-18.7-18.2C227.4,40,236.2,31.8,246.3,32z"/>
<path fill="#005E9E" d="M286.4,67.7h-5.3v-2.9c-2.1,2.4-5.2,3.7-8.5,3.5c-5.5,0-9.2-3-9.2-7.6s3.8-7.5,9.7-7.5h7.5v-1.7
	c0-3.6-2-5.6-5.6-5.6c-3,0-5.1,1.3-7.3,3.9l-3.3-3.3c2.5-3.6,6.7-5.7,11.1-5.6c6.5,0,10.8,3.9,10.8,10.9L286.4,67.7z M280.7,57.3
	h-6.8c-3,0-4.7,1.1-4.7,3.2s1.9,3.5,4.6,3.5c3.8,0,6.8-2.6,6.8-6.2V57.3z"/>
<path fill="#005E9E" d="M330.8,67.7h-5.7V52.1c0-3.7-2.1-6.1-5.5-6.1c-3.1-0.1-5.7,2.3-5.8,5.3c0,0.2,0,0.3,0,0.5v15.8h-5.6V52.1
	c0-3.6-2.1-6.1-5.5-6.1s-5.8,2.5-5.8,6.1v15.5h-5.6V41.5h5.3V44c2-2,4.8-3.1,7.6-3c3.2-0.2,6.3,1.4,8,4.1c2.2-2.7,5.5-4.2,8.9-4.1
	c6.1,0,9.8,4.1,9.8,10.4L330.8,67.7z"/>
<path fill="#005E9E" d="M351.1,68.3c-3.6,0.2-7-1.4-9.2-4.2v3.6h-5.2V31.8h5.6v13c2.2-2.5,5.5-3.9,8.8-3.8c7.5,0,13,5.9,13,13.7
	S358.5,68.3,351.1,68.3z M350.1,46.1c-4.1,0-8,2.8-8,8.6s3.8,8.5,8,8.5c4.6,0,8.1-3.6,8.1-8.6S354.6,46.1,350.1,46.1L350.1,46.1z"/>
<path fill="#005E9E" d="M371.3,28.1c2.1,0,3.8,1.6,3.8,3.7c0,2.1-1.7,3.9-3.9,3.9s-3.9-1.7-3.9-3.9l0,0
	C367.5,29.7,369.2,28,371.3,28.1C371.3,28.1,371.3,28.1,371.3,28.1z M368.5,41.5h5.6v26.1h-5.6V41.5z"/>
<path fill="#005E9E" d="M380,41.5h5.6v15.6c0,3.3,2.6,5.9,5.9,5.9s5.9-2.6,5.9-5.9V41.5h5.7v15.2c0,7-5,11.5-11.5,11.5
	c-6.6,0-11.6-4.5-11.6-11.5L380,41.5z"/>
<path fill="#005E9E" d="M448.5,67.7h-5.7V52.1c0-3.7-2.1-6.1-5.5-6.1c-3.1-0.1-5.7,2.3-5.8,5.3c0,0.2,0,0.3,0,0.5v15.8h-5.6V52.1
	c0-3.6-2.2-6.1-5.5-6.1s-5.8,2.5-5.8,6.1v15.5h-5.7V41.5h5.3V44c2-2,4.8-3.1,7.6-3c3.2-0.2,6.3,1.4,8,4.1c2.2-2.7,5.5-4.2,8.9-4.1
	c6.1,0,9.8,4.1,9.8,10.4L448.5,67.7z"/>
<path fill="#2C9ED9" d="M226.7,101h-16l-2.5,5.9h-6.1l15.6-35.7h1.9l15.6,35.7h-6.1L226.7,101z M218.7,81.6l-6,14.5h11.9L218.7,81.6
	z"/>
<path fill="#2C9ED9" d="M239.1,98.9c2.3,2.4,4.6,3.7,7.4,3.7c2.4,0,4.2-1,4.2-2.9c0-1.5-1.1-2.2-3.7-3.2l-2.7-1.1
	c-4.7-1.9-6.9-3.9-6.9-7.6c0-4.7,3.9-7.6,9.3-7.6c3.5-0.1,6.9,1.4,9.1,4l-3.1,3.5c-1.6-1.7-3.8-2.7-6.2-2.7c-2.2,0-3.6,0.9-3.6,2.5
	c0,1.3,0.9,2,3.5,3.1l2.5,1c5,2.1,7.2,4.2,7.2,7.9c0.1,2.3-0.9,4.5-2.8,5.9c-2,1.4-4.5,2.2-7,2.1c-4.1,0.1-8.1-1.8-10.6-5.1
	L239.1,98.9z"/>
<path fill="#2C9ED9" d="M261.5,98.9c2.3,2.4,4.6,3.7,7.4,3.7c2.4,0,4.2-1,4.2-2.9c0-1.5-1.1-2.2-3.7-3.2l-2.7-1.1
	c-4.7-1.9-6.9-3.9-6.9-7.6c0-4.7,3.9-7.6,9.3-7.6c3.5-0.1,6.9,1.4,9.1,4l-3.1,3.5c-1.6-1.7-3.9-2.7-6.2-2.7c-2.2,0-3.6,0.9-3.6,2.5
	c0,1.3,0.9,2,3.5,3.1l2.5,1c5,2.1,7.2,4.2,7.2,7.9c0.1,2.3-0.9,4.5-2.8,5.9c-2,1.4-4.5,2.2-7,2.1c-4.1,0.1-8.1-1.8-10.6-5.1
	L261.5,98.9z"/>
<path fill="#2C9ED9" d="M287.3,95.6c0.7,4.3,4.1,6.9,8.6,6.9c2.9,0,5.6-1.1,7.7-3.1l2.7,3.8c-2.8,2.7-6.6,4.3-10.5,4.2
	c-8.1,0-14.2-5.9-14.2-13.6c-0.1-7.5,5.9-13.6,13.4-13.7c0.1,0,0.2,0,0.3,0c6.5-0.2,12,4.9,12.2,11.4c0,0.2,0,0.4,0,0.6
	c0,1.2-0.2,2.4-0.4,3.5L287.3,95.6z M301.8,91.3c0-4-3.1-6.4-6.8-6.4c-3.7,0-6.9,2.7-7.6,6.4H301.8z"/>
<path fill="#2C9ED9" d="M312.6,98.9c2.3,2.4,4.6,3.7,7.4,3.7c2.4,0,4.2-1,4.2-2.9c0-1.5-1.1-2.2-3.7-3.2l-2.7-1.1
	c-4.7-1.9-6.9-3.9-6.9-7.6c0-4.7,3.9-7.6,9.3-7.6c3.5-0.1,6.9,1.4,9.1,4l-3.1,3.5c-1.6-1.7-3.8-2.7-6.2-2.7c-2.2,0-3.6,0.9-3.6,2.5
	c0,1.3,0.9,2,3.5,3.1l2.5,1c5,2.1,7.2,4.2,7.2,7.9c0.1,2.3-0.9,4.5-2.8,5.9c-2,1.4-4.5,2.2-7,2.1c-4.1,0.1-8.1-1.8-10.6-5.1
	L312.6,98.9z"/>
<path fill="#2C9ED9" d="M335,98.9c2.3,2.4,4.6,3.7,7.4,3.7c2.4,0,4.2-1,4.2-2.9c0-1.5-1.1-2.2-3.7-3.2l-2.7-1.1
	c-4.7-1.9-6.9-3.9-6.9-7.6c0-4.7,3.9-7.6,9.3-7.6c3.5-0.1,6.9,1.4,9.1,4l-3.1,3.5c-1.6-1.7-3.9-2.7-6.2-2.7c-2.2,0-3.6,0.9-3.6,2.5
	c0,1.3,0.9,2,3.5,3.1l2.5,1c5,2.1,7.2,4.2,7.2,7.9c0.1,2.3-0.9,4.5-2.8,5.9c-2,1.4-4.5,2.2-7,2.1c-4.1,0.1-8.1-1.8-10.6-5.1
	L335,98.9z"/>
<path fill="#2C9ED9" d="M396.3,106.9h-5.7V91.3c0-3.7-2.1-6.1-5.5-6.1c-3.1-0.1-5.7,2.3-5.8,5.3c0,0.2,0,0.3,0,0.5v15.8h-5.6V91.3
	c0-3.6-2.1-6.1-5.5-6.1s-5.8,2.5-5.8,6.1v15.5h-5.6V80.7h5.3v2.5c2-2,4.8-3.1,7.6-3c3.7,0,6.5,1.5,8,4.1c2.2-2.7,5.5-4.2,8.9-4.1
	c6.1,0,9.8,4.1,9.8,10.4L396.3,106.9z"/>
<path fill="#2C9ED9" d="M406.2,95.6c0.7,4.3,4.1,6.9,8.6,6.9c2.9,0,5.6-1.1,7.7-3.1l2.7,3.8c-2.8,2.7-6.6,4.3-10.5,4.2
	c-8.1,0-14.2-5.9-14.2-13.6c-0.1-7.5,5.9-13.6,13.4-13.7c0.1,0,0.1,0,0.2,0c6.5-0.2,12,4.9,12.2,11.4c0,0.2,0,0.4,0,0.6
	c0,1.2-0.2,2.4-0.4,3.5L406.2,95.6z M420.7,91.3c0-4-3.1-6.4-6.8-6.4c-3.7,0-6.9,2.7-7.6,6.4H420.7z"/>
<path fill="#2C9ED9" d="M453.8,106.9h-5.6V91.3c0-3.6-2.3-6.1-5.8-6.1c-3.2-0.1-5.9,2.4-6,5.6c0,0.2,0,0.3,0,0.5v15.6h-5.7V80.7h5.3
	v2.6c2.1-2.1,4.9-3.3,7.9-3.1c6.2,0,9.9,4.1,9.9,10.4L453.8,106.9z"/>
<path fill="#2C9ED9" d="M475.3,106.9c-1.5,0.4-3.1,0.5-4.7,0.6c-6.1,0-9.7-3-9.7-9.1V85.5h-4.3v-4.9h4.3v-6.9h5.7v6.9h7.9v4.9h-7.9
	v12.3c0,3.4,1.8,4.5,5.2,4.5c0.8,0,1.9-0.1,3.5-0.3V106.9z"/>
<g id="_Layer_">
	<path fill="#005E9E" d="M61.7,97c-21.6,0-37.3-15.6-37.3-37.5s15.8-37.8,37.3-37.8c11.5,0,21,4.4,28.6,13.2l9.6-21.6
		C89.6,4.8,76.3,0,61.7,0C28.1-0.7-0.5,26.5,0,59.3c-0.7,32.8,27.7,60,61.5,59.3c22.2,0,41.2-10.6,51.2-28.5L95.1,76.5
		c-0.7,1.6-1.6,3.1-2.6,4.5C84.5,91.7,74.3,97,61.7,97z"/>
	<polygon fill="#2C9ED9" points="126.6,23.3 118.7,23.3 67,139.9 92.4,139.9 122.6,67 152.7,139.9 178.1,139.9 	"/>
</g>
</svg>
