<?xml version="1.0" encoding="UTF-8" standalone="no"?>
<!DOCTYPE svg PUBLIC "-//W3C//DTD SVG 1.1//EN" "http://www.w3.org/Graphics/SVG/1.1/DTD/svg11.dtd">
<svg width="100%" height="100%" viewBox="0 0 530 677" version="1.1" xmlns="http://www.w3.org/2000/svg" xmlns:xlink="http://www.w3.org/1999/xlink" xml:space="preserve" xmlns:serif="http://www.serif.com/" style="fill-rule:evenodd;clip-rule:evenodd;stroke-linecap:round;stroke-linejoin:round;stroke-miterlimit:1.5;">
    <g transform="matrix(1,0,0,1,-4770.23,-196.781)">
        <g transform="matrix(1,0,0,1,4518.05,0)">
            <g id="Human-Me" serif:id="Human Me" transform="matrix(0.771323,0,0,0.771323,-159.649,109.501)">
                <g transform="matrix(1.25651,0,0,1.25651,-5292.91,-114.723)">
                    <path d="M4813.98,434.519C4808.18,416.555 4801.13,396.762 4789.9,363.907C4768.51,301.349 4810.71,214.532 4911.1,211.116C5050.55,206.371 5031.89,347.233 5031.89,347.233L5020.19,367.779C5020.19,367.779 5029.47,401.293 5024.68,412.217C5014.65,435.066 4997.39,502.501 4952.93,508.645C4947.86,509.345 4942.68,509.748 4937.42,509.879L4943.59,513.736L4940.03,613.121L4898.3,616.994L4819.93,504.537L4813.98,434.519Z" style="fill:rgb(254,246,246);stroke:rgb(252,235,235);stroke-width:6.72px;"/>
                </g>
                <g transform="matrix(1.09529,-0.0851984,0.0793102,1.01959,157.661,50.0594)">
                    <path d="M713.291,168.714C713.291,168.714 743.449,173.078 767.725,207.324C786.919,234.401 794.376,285.773 775.11,318.121C783.953,291.941 754.906,195.18 713.291,168.714Z" style="fill:rgb(71,49,28);"/>
                </g>
                <g transform="matrix(0.881367,-0.0685585,0.0685585,0.881367,326.579,70.3334)">
                    <path d="M670.353,464.805C665.265,462.09 650.615,457.825 643.003,454.902C620.52,446.267 579.517,445.415 540.695,470.923C540.695,470.923 527.615,478.377 516.158,468.555C478.721,436.463 492.079,355.686 503.901,302.104C513.714,257.624 518.669,259.816 538.295,235.069C560.882,206.59 612.861,184.019 633.661,190.419C654.461,196.819 677.928,215.485 689.128,201.085C700.328,186.685 728.061,231.912 744.594,250.578C752.796,259.839 772.341,303.882 774.929,329.002C775.809,337.537 781.407,300.203 779.901,285.778C777.924,266.848 773.252,92.996 535.741,149.885C535.741,149.885 411.003,134.565 412.435,279.304C412.575,293.358 422.785,434.904 451.104,442.848C457.006,444.503 432.44,399.466 444.852,350.241C446.412,344.054 464.748,351.399 466.272,358.843C471.668,385.197 467.639,443.989 465.721,458.12C460.488,496.674 467.298,505.337 472.511,509.508C483.177,518.041 537.561,574.915 635.744,586.574C681.196,591.972 733.531,535.878 733.985,479.252C734.066,469.094 721.17,458.381 695.807,460.948C691.037,461.431 673.66,464.26 670.353,464.805Z" style="fill:rgb(71,49,28);"/>
                </g>
                <g transform="matrix(0.881367,-0.0685585,0.0685585,0.881367,301.939,55.4146)">
                    <path d="M496.321,375.139C496.321,375.139 470.993,327.059 439.442,355.859C416.508,376.792 451.708,442.259 494.508,433.992" style="fill:rgb(254,246,246);"/>
                </g>
                <g transform="matrix(0.971995,0.0447749,-0.0463648,1.00651,425.741,2.62377)">
                    <path d="M534.764,321.284C534.764,321.284 505.411,245.454 443.646,310.888C443.646,310.888 462.603,371.429 534.764,321.284Z" style="fill:white;"/>
                </g>
                <g transform="matrix(1.00345,-0.0780552,0.0780552,1.00345,264.676,13.8103)">
                    <circle cx="591.217" cy="371.626" r="20.945" style="fill:rgb(45,112,202);"/>
                </g>
                <g transform="matrix(0.687788,-0.0535006,0.0535006,0.687788,460.341,116.293)">
                    <circle cx="591.217" cy="371.626" r="20.945"/>
                </g>
                <g transform="matrix(0.881367,-0.0685585,0.0685585,0.881367,337.408,47.6061)">
                    <path d="M642.633,393.857C642.633,393.857 614.245,326.384 545.33,371.9C545.33,371.9 568.313,338.172 603.906,344.565C631.47,349.516 642.633,393.857 642.633,393.857Z"/>
                </g>
                <g transform="matrix(0.873304,-0.137289,0.137289,0.873304,307.51,91.2912)">
                    <path d="M642.09,451.909C642.09,451.909 637.314,453.799 633.054,457.291C630.049,459.753 627.529,463.071 626.559,466.929C625.461,471.293 626.521,476.408 631.617,482.243C632.515,483.142 633.755,483.612 635.023,483.535C635.023,483.535 641.123,483.671 648.16,485.546C651.938,486.553 655.971,488.143 659.371,490.657C668.952,497.477 678.278,495.932 685.225,491.251C689.715,488.226 693.144,483.64 694.958,479.011C696.589,474.846 696.926,470.615 696.029,467.167L680.324,402.304C680.325,402.304 682.644,399.32 682.644,399.32C683.424,398.467 683.365,397.14 682.511,396.359C681.657,395.578 680.33,395.637 679.549,396.491L675.756,400.027C675.24,400.591 675.01,401.359 675.13,402.114C675.13,402.114 676.77,423.252 679.11,442.925C680.397,453.743 682.012,464.044 683.19,470.231C683.434,471.351 682.955,472.645 682.408,473.976C681.447,476.315 679.748,478.63 677.522,480.25C674.527,482.428 670.514,483.276 666.093,480.539C662.158,478.192 657.803,476.567 653.503,475.666C646.332,474.164 639.566,474.327 636.383,474.53C633.488,471.408 633.026,468.54 634.075,465.942C636.51,459.909 643.883,455.699 643.883,455.699C644.929,455.204 645.376,453.954 644.882,452.908C644.387,451.862 643.136,451.415 642.09,451.909Z" style="fill:rgb(227,212,212);"/>
                </g>
                <g transform="matrix(0.782311,0.0667797,-0.0675791,0.791677,448.722,13.9425)">
                    <path d="M654.353,328.578C656.714,326.356 654.441,312.736 648.52,311.079C631.159,306.217 571.02,297.606 550.186,299.412C538.6,300.416 520.603,319.412 523.52,321.912C526.436,324.412 552.757,314.075 567.686,314.412C586.159,314.828 619.909,322.051 634.353,324.412C641.074,325.51 651.992,330.801 654.353,328.578Z" style="fill:rgb(71,49,28);"/>
                </g>
                <g transform="matrix(-0.55868,0.00415736,0.00504339,0.677748,1322.68,97.4264)">
                    <path d="M654.353,328.578C656.714,326.356 654.441,312.736 648.52,311.079C631.159,306.217 564.024,298.859 543.191,300.664C531.604,301.668 524.508,325.791 527.425,328.291C530.341,330.791 544.551,315.626 559.48,315.963C577.952,316.379 619.909,322.051 634.353,324.412C641.074,325.51 651.992,330.801 654.353,328.578Z" style="fill:rgb(71,49,28);"/>
                </g>
                <g transform="matrix(0.91608,-0.0712587,0.0735911,0.946065,287.82,59.9493)">
                    <path d="M728.461,164.854C728.461,164.854 651.875,65.752 516.449,135.83C463.197,163.387 458.914,226.582 454.476,270.249C451.835,296.233 446.665,305.856 446.665,305.856C446.665,305.856 469.942,291.582 471.009,260.116C471.009,260.116 476.781,295.333 453.848,312.933C453.848,312.933 486.476,298.516 488.076,269.716C488.076,269.716 491.581,290.791 474.482,315.791C493.579,317.913 529.286,241.434 563.68,243.942C617.356,247.857 612.793,223.461 639.675,217.202C681.64,207.43 699.483,253.108 724.738,250.332C764.81,245.927 773.953,279.924 786.865,319.178C789.494,275.518 791.46,220.355 728.461,164.854Z" style="fill:rgb(98,69,41);"/>
                </g>
                <g transform="matrix(0.91012,0.119264,-0.125408,0.889559,349.638,-31.6658)">
                    <path d="M464.599,163.354C464.599,163.354 425.498,213.092 427.291,264.306C428.139,288.557 435.332,314.033 443.936,324.766C443.936,324.766 467.892,277.277 465.244,209.371L464.599,163.354Z" style="fill:rgb(98,69,41);"/>
                </g>
                <g transform="matrix(0.881367,-0.0685585,0.0685585,0.881367,326.579,93.1155)">
                    <path d="M447.43,472.075L439.771,472.655L439.505,526.692C439.505,526.692 277.23,584.194 231.673,626.39C193.114,662.103 152.036,726.272 199.963,816.926C258.153,926.991 334.194,1029.01 382.948,1043.88C431.702,1058.76 450.113,1053.25 492.488,906.193C582.648,868.845 657.401,833.988 743.349,798.434L786.285,689.358L811.312,673.181C811.312,673.181 806.497,646.669 753.841,630.17C721.021,619.886 641.858,575.23 637.447,577.235L640.906,565.99L627.424,561.125L594.542,677.552C594.542,677.552 558.451,612.813 547.043,595.47C538.847,583.01 544.997,557.671 544.997,557.671C544.997,557.671 467.244,524.105 447.43,472.075Z" style="fill:rgb(64,37,83);"/>
                </g>
                <g transform="matrix(0.881367,-0.0685585,0.0685585,0.881367,326.579,93.1155)">
                    <path d="M435.505,1041.52C584.672,1035.15 668.251,977.692 801.176,872.172C938.074,856.233 953.58,796.985 952.697,782.709C950.863,753.048 942.964,703.949 924.158,692.187C910.279,683.508 891.561,678.309 875.901,683.078C857.615,688.648 829.054,698.88 829.054,698.88C829.054,698.88 857.329,637.351 841.015,620.859C816.725,596.306 813.423,627.718 807.174,641.2C790.365,677.469 791.909,678.642 775.47,703.545C756.461,732.342 747.313,740.863 744.063,791.097C744.063,791.097 592.508,839.644 492.165,905.936" style="fill:rgb(254,246,246);"/>
                </g>
                <g transform="matrix(0.903504,-0.0702804,0.0685585,0.881367,305.339,82.8257)">
                    <path d="M783.541,260.85C778.069,245.067 772.92,237.445 767.478,233.762C761.271,229.561 754.589,230.404 746.116,231.133C739.661,231.71 731.66,229.325 723.932,223.832C718.13,219.709 712.614,213.697 708.105,205.531C700.761,192.917 685.752,181.642 668.207,177.886C652.84,174.596 635.792,177.13 621.186,187.519C603.713,200.751 596.526,210.398 585.973,214.962C576.913,218.88 565.533,218.988 542.788,214.465C565.993,222.866 578.079,224.251 588.155,221.43C599.593,218.229 608.193,209.234 627.722,197.802C639.694,190.305 653.086,189.802 665.199,192.462C678.935,195.478 691.381,202.726 697.591,212.318C703.927,221.633 711.218,228.293 718.714,232.494C728.948,238.228 739.235,239.696 747.103,238.018C754.168,236.488 759.686,234.734 765.37,237.559C770.89,240.302 776.423,246.883 783.541,260.85Z" style="fill:rgb(71,49,28);"/>
                </g>
                <g transform="matrix(0.881367,-0.0685585,0.0685585,0.881367,326.579,70.3334)">
                    <path d="M760.149,217.021C760.149,217.021 756.337,206.839 747.564,198.715C742.285,193.826 735.279,189.924 726.403,188.921C723.852,188.649 721.632,186.391 719.086,183.612C709.691,173.362 699.822,154.203 688.315,144.886C679.877,138.286 669.128,135.428 657.361,135.985C643.918,136.622 629.16,142.34 615.178,151.972C605.941,158.862 600.849,162.543 595.232,164.216C589.369,165.963 583.075,165.733 571.444,165.297C556.008,165.06 539.797,167.088 527.171,172.49C515.939,177.296 507.435,184.281 504.283,193.787C501.3,202.946 499.017,207.734 494.438,211.546C490.277,215.009 484.583,217.714 475.421,222.01C485.585,219.406 491.91,217.725 496.798,214.964C502.768,211.593 506.43,206.696 511.624,196.901C515.085,190.291 522.434,186.65 531.238,184.335C542.712,181.318 556.782,181.357 569.973,183.317C584.808,185.188 592.915,185.838 600.556,183.998C608.09,182.183 615.193,177.792 627.571,168.909C636.025,162.376 644.946,157.871 653.542,155.702C663.015,153.312 672.043,153.352 679.232,157.862C691.206,165.053 702.67,181.947 712.837,190.234C717.561,194.085 722.032,196.397 726.178,196.214C733.773,195.828 740.154,198.279 745.275,201.64C754.903,207.959 760.149,217.021 760.149,217.021Z" style="fill:rgb(71,49,28);"/>
                </g>
                <g transform="matrix(0.881367,-0.0685585,0.0685585,0.881367,326.579,70.3334)">
                    <path d="M680.315,132.412C680.315,132.412 655.576,114.051 628.537,111.73C615.483,110.609 602.159,113.48 590.465,122.629C586.194,126.062 583.12,127.402 580.17,127.717C575.922,128.17 571.975,126.77 566.27,126.214C556.285,125.408 549.642,126.261 544.236,128.097C537.739,130.305 533.145,134.05 526.144,138.209C520.79,141.579 517.742,143.69 513.799,145.058C510.392,146.239 506.399,146.986 499.819,147.682C490.697,148.748 482.395,153.116 475.977,159.791C470.048,165.956 465.637,173.746 463.473,181.712C461.865,187.724 459.3,192.019 456.352,195.359C452.201,200.063 447.487,202.892 443.819,205.645C448.016,203.495 453.301,201.461 458.298,197.382C462.166,194.225 465.712,189.875 468.538,183.499C471.396,176.984 476.159,170.939 481.944,166.369C487.31,162.131 493.677,159.447 500.458,159.503C508.473,159.482 513.377,159.006 517.618,157.961C522.592,156.735 526.597,154.583 533.483,150.996C539.597,147.607 543.593,144.499 549.169,142.6C553.138,141.248 557.97,140.537 565.316,140.899C574.042,141.169 579.667,142.67 586.278,140.182C589.896,138.821 593.884,136.438 598.61,131.864C607.165,123.372 617.751,120.198 628.378,119.712C654.375,118.525 680.315,132.412 680.315,132.412Z" style="fill:rgb(71,49,28);"/>
                </g>
                <g transform="matrix(-0.794992,-0.118992,-0.0993459,0.832123,1418.11,144.277)">
                    <path d="M532.731,327.179C535.541,325.036 491.716,254.473 468.171,309.633C468.171,309.633 477.846,369.047 532.731,327.179Z" style="fill:white;"/>
                </g>
                <g transform="matrix(0.805063,-0.062623,0.062623,0.805063,485.363,87.1625)">
                    <circle cx="591.217" cy="371.626" r="20.945" style="fill:rgb(45,112,202);"/>
                </g>
                <g transform="matrix(0.549257,-0.0427247,0.0427247,0.549257,643.925,170.214)">
                    <circle cx="591.217" cy="371.626" r="20.945"/>
                </g>
                <g transform="matrix(0.819615,-0.063755,0.0685585,0.881367,372.846,47.8182)">
                    <path d="M685.517,395.621C685.517,395.621 728.292,350.68 751.118,393.597C751.118,393.597 747.484,368.558 727.32,366.749C702.773,364.547 685.517,395.621 685.517,395.621Z"/>
                </g>
                <g transform="matrix(0.872251,-0.0678493,0.0551863,0.709459,335.585,109.948)">
                    <path d="M774.027,251.795C774.027,251.795 767.037,217.62 739.075,222.669C711.113,227.717 703.776,192.999 703.776,192.999C703.776,192.999 719.279,217.642 734.813,214.535C750.348,211.428 772.474,225.775 774.027,251.795" style="fill:rgb(71,49,28);"/>
                </g>
                <g transform="matrix(0.881367,-0.0685585,0.0685585,0.881367,326.579,70.3334)">
                    <path d="M701.2,194.565C701.2,194.565 691.643,179.081 675.737,171.334C665.915,166.55 653.809,164.846 640.111,170.64C630.022,175.02 621.784,179.301 614.042,183.148C605.679,187.304 597.912,190.806 588.686,193.032C583.397,194.308 577.634,195.186 570.97,195.536C565.5,195.823 559.448,195.841 552.589,195.365C538.319,194.552 522.058,202.367 509.557,214.735C497.938,226.232 489.531,241.287 488.709,255.257C488.602,256.275 489.342,257.189 490.36,257.295C491.379,257.402 492.292,256.662 492.399,255.644C494.315,242.986 503.361,230.112 514.805,220.485C526.056,211.021 539.735,204.703 551.589,206.214C560.682,207.247 568.499,207.542 575.449,207.12C581.357,206.761 586.651,205.908 591.551,204.672C601.706,202.111 610.203,197.99 619.214,192.992C626.663,188.86 634.445,184.042 644.108,179.133C654.841,173.552 664.755,174.314 673.046,177.513C688.153,183.34 698.128,196.645 698.128,196.645C698.702,197.493 699.856,197.715 700.704,197.141C701.552,196.567 701.774,195.413 701.2,194.565Z" style="fill:rgb(71,49,28);"/>
                </g>
                <g transform="matrix(0.881367,-0.0685585,0.0685585,0.881367,326.579,70.3334)">
                    <path d="M640.264,127.471C640.264,127.471 627.66,126.596 616.24,130.366C610.702,132.194 605.54,135.195 601.961,139.595C598.51,144.014 594.324,146.36 589.915,147.742C586.976,148.663 583.929,149.163 580.861,149.437C575.815,149.887 570.744,149.817 566.113,149.947C558.073,150.287 551.971,151.608 547.455,153.222C539.457,156.081 536.404,159.665 536.404,159.665C536.032,160.05 536.044,160.664 536.429,161.035C536.814,161.407 537.429,161.395 537.8,161.01C537.8,161.01 540.938,158.2 548.4,156.368C552.762,155.297 558.561,154.587 566.085,154.986C570.849,155.171 576.054,155.692 581.262,155.463C584.835,155.306 588.41,154.818 591.815,153.721C597.31,151.952 602.367,148.653 606.458,142.969C609.146,139.076 613.339,136.395 617.8,134.458C628.282,129.907 640.234,129.41 640.234,129.41C640.769,129.418 641.21,128.991 641.218,128.456C641.227,127.921 640.799,127.479 640.264,127.471Z" style="fill:rgb(71,49,28);"/>
                </g>
                <g transform="matrix(0.881367,-0.0685585,0.0685585,0.881367,326.579,70.3334)">
                    <path d="M603.332,104.168C603.332,104.168 594.196,103.068 586.603,104.99C582.105,106.128 578.285,108.462 576.492,112.122C575.16,114.923 572.304,115.759 569.207,116.112C566.096,116.467 562.675,116.172 559.612,115.919C556.778,115.686 554.22,115.501 552.386,115.607C547.8,115.997 543.936,116.411 540.585,117.01C535.88,117.851 532.16,118.947 528.864,120.453C522.412,123.403 517.628,127.839 510.168,135.228C509.767,135.583 509.729,136.196 510.084,136.597C510.438,136.998 511.051,137.036 511.452,136.681C519.257,130.538 524.206,126.88 530.56,124.72C533.657,123.666 537.086,123.028 541.377,122.571C544.622,122.225 548.337,121.975 552.747,121.837C555.058,121.693 558.621,122.191 562.385,122.291C566.1,122.389 569.982,122.155 573.217,121.047C576.747,119.839 579.606,117.708 581.001,114.055C581.99,111.383 584.695,109.756 587.735,108.627C594.607,106.073 603.207,106.103 603.207,106.103C603.741,106.137 604.203,105.731 604.237,105.198C604.272,104.664 603.866,104.202 603.332,104.168Z" style="fill:rgb(71,49,28);"/>
                </g>
                <g transform="matrix(0.881367,-0.0685585,0.0685585,0.881367,326.579,70.3334)">
                    <path d="M506.779,165.663C506.779,165.663 495.238,170.117 486.102,178.056C481.754,181.834 478.049,186.435 476.11,191.579C474.303,196.592 472.453,201.131 470.376,205.195C468.885,208.112 467.253,210.756 465.347,213.128C462.265,216.966 458.475,220.101 453.217,222.273C446.12,225.341 441.175,230.213 437.864,235.353C432.069,244.352 431.209,253.823 431.209,253.823C431.134,254.353 431.502,254.845 432.032,254.92C432.562,254.996 433.053,254.627 433.129,254.097C433.129,254.097 434.873,245.449 441.013,237.591C444.276,233.416 448.817,229.481 455.163,227.333C461.572,225.046 466.392,221.602 470.175,217.091C472.425,214.408 474.294,211.335 475.917,207.932C477.989,203.587 479.628,198.674 481.276,193.301C482.593,188.771 485.572,184.673 489.007,181.119C497.053,172.795 507.566,167.435 507.566,167.435C508.055,167.218 508.276,166.645 508.058,166.156C507.841,165.667 507.267,165.446 506.779,165.663Z" style="fill:rgb(71,49,28);"/>
                </g>
                <g transform="matrix(0.833579,0.0379909,-0.0266548,1.02392,412.626,-80.2206)">
                    <path d="M657.425,498.124C657.425,498.124 639.225,485.96 617.029,493.018C594.511,500.179 577.509,495.149 577.509,495.149C577.509,495.149 650.055,548.506 694.596,498.42C696.816,495.924 697.496,493.457 698.124,492.548C698.082,492.54 694.86,493.738 690.514,492.679C687.528,491.951 679.348,485.751 657.425,498.124Z" style="fill:rgb(181,88,97);"/>
                </g>
                <g transform="matrix(0.812354,-0.0703986,0.0763239,0.880729,369.951,63.0294)">
                    <clipPath id="_clip1">
                        <path d="M664.01,497.898C664.01,497.898 647.262,481.632 623.75,487.001C599.897,492.449 583.359,484.545 583.359,484.545C583.359,484.545 650.607,565.606 701.677,502.856C703.98,500.026 705.319,497.502 706.084,496.534C706.042,496.519 702.605,497.498 698.346,495.739C695.419,494.53 687.994,486.375 664.01,497.898Z"/>
                    </clipPath>
                    <g clip-path="url(#_clip1)">
                        <path d="M580.948,482.977C582.486,485.503 590.189,489.626 590.189,489.626C618.049,500.748 666.545,509.89 704.455,500.389L709.279,493.293L691.781,481.627L580.962,474.469C580.962,474.469 579.473,480.555 580.948,482.977Z" style="fill:white;"/>
                    </g>
                </g>
            </g>
        </g>
    </g>
</svg>
