<?xml version="1.0" encoding="UTF-8" standalone="no"?>
<!DOCTYPE svg PUBLIC "-//W3C//DTD SVG 1.1//EN" "http://www.w3.org/Graphics/SVG/1.1/DTD/svg11.dtd">
<svg width="100%" height="100%" viewBox="0 0 548 1126" version="1.1" xmlns="http://www.w3.org/2000/svg" xmlns:xlink="http://www.w3.org/1999/xlink" xml:space="preserve" xmlns:serif="http://www.serif.com/" style="fill-rule:evenodd;clip-rule:evenodd;stroke-linejoin:round;stroke-miterlimit:2;">
    <g transform="matrix(1,0,0,1,-4424.35,3.31088)">
        <g transform="matrix(1,0,0,1,4518.05,0)">
            <g transform="matrix(1,0,0,0.932183,-4581.7,11.5548)">
                <path d="M5015.15,-15.947C5015.15,-15.947 4980.58,23.805 5004.78,46.273C5028.97,68.741 5035.89,86.025 5020.33,106.765C5004.78,127.505 5003.05,141.331 5018.6,155.158C5034.16,168.985 5049.71,210.465 5011.69,229.477C4973.66,248.488 4983.64,287.264 5004.38,313.189C5025.12,339.114 5041.07,371.2 5008.23,407.495C4975.39,443.79 4970.21,485.27 4992.68,518.109C5015.15,550.947 5022.06,578.6 4999.59,601.069C4977.12,623.537 4968.48,649.462 4989.22,680.572C5009.96,711.682 5022.06,751.434 4994.4,777.359C4966.75,803.284 4972.37,843.9 4998.29,888.837C5024.22,933.774 5024.56,947.463 4982.74,985.624C4955.09,1010.86 4966.57,1045.24 4986.54,1068.85C5024.57,1113.78 4983.09,1190.97 4983.09,1190.97L4488,1190.97L4488,-15.947L5015.15,-15.947Z" style="fill:rgb(126,96,147);"/>
            </g>
        </g>
    </g>
</svg>
