<?xml version="1.0" encoding="UTF-8" standalone="no"?>
<!DOCTYPE svg PUBLIC "-//W3C//DTD SVG 1.1//EN" "http://www.w3.org/Graphics/SVG/1.1/DTD/svg11.dtd">
<svg width="100%" height="100%" viewBox="0 0 635 717" version="1.1" xmlns="http://www.w3.org/2000/svg" xmlns:xlink="http://www.w3.org/1999/xlink" xml:space="preserve" xmlns:serif="http://www.serif.com/" style="fill-rule:evenodd;clip-rule:evenodd;stroke-linecap:round;stroke-linejoin:round;stroke-miterlimit:1.5;">
    <g transform="matrix(0.79087,0,0,0.79087,-400.794,-61.5682)">
        <g>
            <g id="robot">
                <g transform="matrix(1,0,0,1,-15.7199,15.3378)">
                    <path d="M547.462,665.923C547.462,665.923 507.514,711.95 538.829,804.054C571.444,899.979 720.846,1106.46 1090.16,826.357C1090.16,826.357 1100.71,758.25 1040.28,742.902C1040.28,742.902 915.338,842.671 808.138,853.216C691.11,864.727 646.73,817.228 652.02,730C655.101,679.203 604.058,603.572 547.462,665.923Z" style="fill:rgb(81,52,101);"/>
                </g>
                <g transform="matrix(1.04632,-0.0467832,-0.0467832,1.04726,8.60135,-19.6332)">
                    <path d="M672.357,809.217L724.221,756.829" style="fill:none;stroke:rgb(81,52,101);stroke-width:6.41px;"/>
                </g>
                <g transform="matrix(1.27741,-0.280208,-0.280208,1.28304,91.1089,-29.9976)">
                    <path d="M672.357,809.217L724.221,756.829" style="fill:none;stroke:rgb(81,52,101);stroke-width:6.4px;"/>
                </g>
                <g transform="matrix(1.90399,-0.913069,-0.913099,1.92227,281.161,-122.309)">
                    <path d="M673.229,808.366L724.221,756.829" style="fill:none;stroke:rgb(81,52,101);stroke-width:6.4px;"/>
                </g>
                <g transform="matrix(1.16187,-0.163502,-0.163502,1.16515,44.5376,-21.5164)">
                    <path d="M672.357,809.217L724.221,756.829" style="fill:none;stroke:rgb(81,52,101);stroke-width:6.41px;"/>
                </g>
                <g transform="matrix(2.0595,-1.07015,-1.07019,2.08094,266.582,-140.645)">
                    <path d="M672.94,808.651L724.221,756.829" style="fill:none;stroke:rgb(81,52,101);stroke-width:6.4px;"/>
                </g>
                <g transform="matrix(1.62362,-0.62992,-0.62992,1.63628,168.895,-75.2105)">
                    <path d="M674.306,807.293L724.221,756.829" style="fill:none;stroke:rgb(81,52,101);stroke-width:6.4px;"/>
                </g>
                <g transform="matrix(1.65447,-0.661022,-0.661053,1.66767,289.757,-98.3089)">
                    <path d="M670.731,810.828L724.221,756.829" style="fill:none;stroke:rgb(81,52,101);stroke-width:6.4px;"/>
                </g>
                <g transform="matrix(1.25621,-0.258801,-0.258801,1.26142,285.625,-57.2297)">
                    <path d="M668.08,813.537L724.221,756.829" style="fill:none;stroke:rgb(81,52,101);stroke-width:6.4px;"/>
                </g>
                <g transform="matrix(1,0,0,1,8.5005,6.08943)">
                    <path d="M777.448,479.079C777.448,479.079 764.351,476.616 762.486,471.316C753.653,446.212 733.245,376.943 724.446,328.456C716.92,286.975 684.183,146.571 875.746,144.481C1100.72,142.026 1008.72,412.538 990.131,452.479" style="fill:rgb(81,52,101);"/>
                </g>
                <g transform="matrix(1.16653,0,0,1.16653,-140.46,-296.767)">
                    <circle cx="774.339" cy="336.067" r="14.93" style="fill:rgb(81,52,101);"/>
                </g>
                <g transform="matrix(1.16653,0,0,1.16653,85.7567,-286.744)">
                    <circle cx="774.339" cy="336.067" r="14.93" style="fill:rgb(81,52,101);"/>
                </g>
                <g transform="matrix(0.999974,-0.0014337,-0.0014337,0.922294,8.67479,15.5357)">
                    <path d="M757.592,274.612L754.511,107.643" style="fill:none;stroke:rgb(81,52,101);stroke-width:12.37px;"/>
                </g>
                <g transform="matrix(0.999786,-0.0115767,-0.0115767,0.37254,235.339,74.0166)">
                    <path d="M759.335,350.007L754.511,107.643" style="fill:none;stroke:rgb(81,52,101);stroke-width:15.97px;"/>
                </g>
                <g transform="matrix(1.48115,0,0,1.55445,-429.758,-182.464)">
                    <circle cx="891.262" cy="339.997" r="20.137" style="fill:white;stroke:rgb(81,52,101);stroke-width:4.22px;"/>
                </g>
                <g transform="matrix(1.31046,0.0596005,-0.0729964,1.605,-152.434,-242.415)">
                    <circle cx="891.262" cy="339.997" r="20.137" style="fill:white;stroke:rgb(81,52,101);stroke-width:4.37px;"/>
                </g>
                <g transform="matrix(1,0,0,1,8.5005,6.08943)">
                    <path d="M787.644,549.136C831.962,580.834 914.086,559.965 914.086,559.965L913.824,548.853C866.648,542.08 824.789,524.062 787.383,501.936L787.644,549.136Z" style="fill:rgb(81,52,101);"/>
                </g>
                <g transform="matrix(1,0,0,1,8.5005,6.08943)">
                    <path d="M999.028,726.403C1000.37,730.307 1028.27,733.379 1025.75,715.468C1021.54,685.473 1008.15,631.424 1035.86,603.019L915.574,567.36C915.574,567.36 871.448,602.852 787.994,560.645L591.54,622.229C640.46,634.344 659.456,669.586 654.658,738.489C654.121,746.206 654.529,753.402 655.812,760.068C655.812,760.068 776.425,772.402 882.244,692.131C958.358,634.393 990.312,700.98 999.028,726.403Z" style="fill:rgb(81,52,101);"/>
                </g>
                <g transform="matrix(1.11149,0.296188,-0.28069,1.05333,147.225,-362.628)">
                    <path d="M1078.65,814.846C1078.65,814.846 1225.85,847.24 1220.61,694.94C1220.3,685.914 1190.72,680.218 1184.07,691.625C1173.86,709.107 1199.42,786.297 1068.09,766.883C1068.09,766.883 1082.48,789.905 1078.65,814.846Z" style="fill:rgb(81,52,101);"/>
                </g>
                <g transform="matrix(0.00342862,-0.999994,-0.999994,-0.00342862,1871.59,1808.99)">
                    <path d="M1078.65,814.846C1078.65,814.846 1233.58,848.852 1230.46,710.851C1230.2,699.424 1208.21,700.975 1196.42,701.168C1178.69,701.458 1199.49,797.771 1063.67,772.632C1063.67,772.632 1082.48,789.905 1078.65,814.846Z" style="fill:rgb(81,52,101);"/>
                </g>
                <g transform="matrix(0.998414,0.0562898,-0.0562898,0.998414,32.6321,-59.8173)">
                    <path d="M931.172,308.414L842.875,296.697C841.805,296.518 840.79,297.241 840.61,298.312C840.43,299.382 841.154,300.397 842.224,300.577L929.508,318.329C932.244,318.788 934.838,316.939 935.298,314.203C935.757,311.467 933.908,308.873 931.172,308.414Z" style="fill:rgb(255,236,155);"/>
                </g>
                <g transform="matrix(-0.989571,-0.144046,-0.144046,0.989571,1940.9,119.784)">
                    <path d="M929.508,318.329L842.224,300.577C841.154,300.397 840.43,299.382 840.61,298.312C840.79,297.241 841.805,296.518 842.875,296.697L931.172,308.414C933.908,308.873 935.757,311.467 935.298,314.203C934.838,316.939 932.244,318.788 929.508,318.329Z" style="fill:rgb(255,236,155);"/>
                </g>
                <g transform="matrix(1,0,0,1,7.04771,7.47695)">
                    <path d="M508.566,690.205C508.566,690.205 538.688,762.728 628.858,734.91" style="fill:none;stroke:rgb(255,236,155);stroke-width:6.41px;"/>
                </g>
                <g transform="matrix(1,0,0,1,7.04771,7.47695)">
                    <path d="M502.924,777.546C502.924,777.546 559.88,826.552 639.498,795.856" style="fill:none;stroke:rgb(255,236,155);stroke-width:6.41px;"/>
                </g>
                <g transform="matrix(1,0,0,1,7.04771,7.47695)">
                    <path d="M527.573,853.555C527.573,853.555 584.732,891.268 663.391,839.468" style="fill:none;stroke:rgb(255,236,155);stroke-width:6.41px;"/>
                </g>
                <g transform="matrix(1,0,0,1,21.6677,9.72618)">
                    <path d="M574.883,923.176C574.883,923.176 680.213,938.79 710.909,857.254" style="fill:none;stroke:rgb(255,236,155);stroke-width:6.41px;"/>
                </g>
                <g transform="matrix(1,0,0,1,25.0416,6.35233)">
                    <path d="M677.363,974.443C677.363,974.443 788.131,937.501 765.109,859.802" style="fill:none;stroke:rgb(255,236,155);stroke-width:6.41px;"/>
                </g>
                <g transform="matrix(1,0,0,1,7.04771,7.47695)">
                    <path d="M820.2,970.006C820.2,970.006 882.674,924.608 849.1,841.154" style="fill:none;stroke:rgb(255,236,155);stroke-width:6.41px;"/>
                </g>
                <g transform="matrix(1,0,0,1,7.04771,7.47695)">
                    <path d="M941.115,921.556C941.115,921.556 980.555,873.232 930.674,804.166" style="fill:none;stroke:rgb(255,236,155);stroke-width:6.41px;"/>
                </g>
                <g transform="matrix(1,0,0,1,7.04771,7.47695)">
                    <path d="M1030.56,870.886C1030.56,870.886 1048.62,808.35 990.111,770.94" style="fill:none;stroke:rgb(255,236,155);stroke-width:6.41px;"/>
                </g>
                <g transform="matrix(1,0,0,1,-0.458892,-10.4047)">
                    <path d="M922.549,168.289C859.792,147.205 794.774,173.484 794.774,173.484C794.774,173.484 827.195,165.901 866.599,199.676C897.892,226.498 880.567,255.34 896.225,272.487C916.446,294.631 987.472,297.806 994.701,275.029C1000.32,257.32 1006.93,196.638 922.549,168.289Z" style="fill:rgb(255,236,155);"/>
                </g>
                <g>
                    <clipPath id="_clip1">
                        <path d="M922.09,157.884C859.333,136.8 794.315,163.079 794.315,163.079C794.315,163.079 826.736,155.496 866.14,189.271C897.433,216.093 880.108,244.935 895.766,262.082C915.987,284.226 987.013,287.401 994.242,264.624C999.861,246.915 1006.47,186.233 922.09,157.884Z"/>
                    </clipPath>
                    <g clip-path="url(#_clip1)">
                        <g transform="matrix(0.604399,-0.615344,0.706213,0.707794,156.992,599.121)">
                            <path d="M791.081,173.546L951.823,177.957" style="fill:none;stroke:rgb(81,52,101);stroke-width:6.89px;"/>
                        </g>
                        <g transform="matrix(0.48638,-0.503756,0.702407,0.711397,300.035,491.188)">
                            <path d="M790.857,173.484L966.715,178.123" style="fill:none;stroke:rgb(81,52,101);stroke-width:7.51px;"/>
                        </g>
                        <g transform="matrix(0.465748,-0.484712,0.701295,0.712442,342.15,483.535)">
                            <path d="M783.357,173.36L964.251,178.152" style="fill:none;stroke:rgb(81,52,101);stroke-width:7.62px;"/>
                        </g>
                        <g transform="matrix(0.465748,-0.484712,0.701295,0.712442,369.6,492.665)">
                            <path d="M783.357,173.36L964.251,178.152" style="fill:none;stroke:rgb(81,52,101);stroke-width:7.62px;"/>
                        </g>
                        <g transform="matrix(0.465748,-0.484712,0.701295,0.712442,392.004,506.821)">
                            <path d="M783.357,173.36L964.251,178.152" style="fill:none;stroke:rgb(81,52,101);stroke-width:7.62px;"/>
                        </g>
                        <g transform="matrix(0.465748,-0.484712,0.701295,0.712442,411.043,523.439)">
                            <path d="M783.357,173.36L964.251,178.152" style="fill:none;stroke:rgb(81,52,101);stroke-width:7.62px;"/>
                        </g>
                        <g transform="matrix(0.465748,-0.484712,0.701295,0.712442,434.103,536.241)">
                            <path d="M783.357,173.36L964.251,178.152" style="fill:none;stroke:rgb(81,52,101);stroke-width:7.62px;"/>
                        </g>
                        <g transform="matrix(0.465748,-0.484712,0.701295,0.712442,457.081,549.371)">
                            <path d="M783.357,173.36L964.251,178.152" style="fill:none;stroke:rgb(81,52,101);stroke-width:7.62px;"/>
                        </g>
                    </g>
                </g>
                <g transform="matrix(1.41561,0,0,1.41561,-6253.92,-209.877)">
                    <path d="M5147.22,679.341C5147.22,679.341 5171.24,664.944 5189.73,682.223C5209.39,700.596 5192.66,729.749 5184.12,734.63C5184.42,703.6 5176.45,687.94 5147.22,679.341Z" style="fill:rgb(81,52,101);"/>
                </g>
                <g transform="matrix(1,0,0,1,8.5005,6.08943)">
                    <g transform="matrix(1.00305,0,0,1.02714,-3.11845,-8.89828)">
                        <path d="M1019.74,452.292L808.836,418.774L774.453,330.952C768.265,335.679 762.076,337.357 755.888,336.846L775.825,481.277C817.946,503.019 902.263,541.477 942.916,536.646C980.682,532.158 1001.08,504.862 1019.74,452.292Z" style="fill:rgb(81,52,101);"/>
                    </g>
                    <g transform="matrix(1.00305,0,0,1.02714,-3.11845,-8.89828)">
                        <path d="M1021.47,452.904C1021.65,452.391 1021.59,451.824 1021.32,451.356C1021.04,450.888 1020.57,450.568 1020.03,450.483L810.891,416.239C810.891,416.24 777.347,329.819 777.347,329.819C776.991,328.911 776.229,328.222 775.29,327.959C774.35,327.696 773.342,327.89 772.567,328.483C769.956,330.468 767.351,331.858 764.742,332.717C761.876,333.66 759.011,333.95 756.148,333.707C755.195,333.628 754.258,333.986 753.601,334.68C752.944,335.374 752.637,336.329 752.768,337.276C752.768,337.276 757.686,373.393 762.694,409.498C767.703,445.602 772.801,481.694 772.801,481.694C772.937,482.677 773.543,483.533 774.425,483.989C798.668,496.402 836.8,514.281 872.64,526.34C899.736,535.458 925.549,541.205 943.199,539.033C961.109,536.822 975.214,529.664 987.067,517.284C1000.73,503.014 1011.4,481.707 1021.47,452.904ZM1017.26,453.762C1007.39,480.729 997.061,500.79 983.928,514.25C972.711,525.748 959.435,532.34 942.632,534.259C925.509,536.222 900.576,530.259 874.382,521.226C839.605,509.234 802.66,491.733 778.638,479.298C777.653,472.004 773.371,440.31 769.019,408.625C764.996,379.335 760.913,350.054 759.514,340.036C761.914,339.903 764.312,339.456 766.71,338.656C768.804,337.958 770.899,336.99 772.994,335.718L806.198,419.806C806.564,420.742 807.399,421.414 808.391,421.572L1017.26,453.762Z" style="fill:rgb(255,236,155);"/>
                    </g>
                </g>
                <g transform="matrix(1.88694,0,0,1.93697,-691.491,-322.31)">
                    <circle cx="774.339" cy="336.067" r="14.93" style="fill:rgb(255,236,155);stroke:rgb(81,52,101);stroke-width:4.2px;"/>
                </g>
            </g>
        </g>
    </g>
</svg>
