<?xml version="1.0" encoding="UTF-8" standalone="no"?>
<!DOCTYPE svg PUBLIC "-//W3C//DTD SVG 1.1//EN" "http://www.w3.org/Graphics/SVG/1.1/DTD/svg11.dtd">
<svg width="100%" height="100%" viewBox="0 0 199 199" version="1.1" xmlns="http://www.w3.org/2000/svg" xmlns:xlink="http://www.w3.org/1999/xlink" xml:space="preserve" xmlns:serif="http://www.serif.com/" style="fill-rule:evenodd;clip-rule:evenodd;stroke-linejoin:round;stroke-miterlimit:2;">
    <g transform="matrix(1,0,0,1,-423.881,0)">
        <g id="CSEA" transform="matrix(1,0,0,1,422.923,-0.65134)">
            <rect x="0.958" y="0.651" width="198.756" height="198.756" style="fill:none;"/>
            <g transform="matrix(0.89904,-0.437866,0.437866,0.89904,-407.777,251.532)">
                <circle cx="521.748" cy="89.386" r="9.796" style="fill:rgb(126,96,147);"/>
            </g>
            <g transform="matrix(0.999865,0.0164147,-0.0164147,0.999865,-414.857,-8.65062)">
                <path d="M525.219,90.389C525.219,90.389 517.601,84.589 508.479,90.784C508.479,90.784 514.225,11.674 516.847,11.674C519.47,11.674 525.219,90.389 525.219,90.389" style="fill:rgb(61,35,79);"/>
            </g>
            <g transform="matrix(-0.426504,-0.904485,0.904485,-0.426504,227.875,615.12)">
                <path d="M525.219,90.389C525.219,90.389 517.601,84.589 508.479,90.784C508.479,90.784 514.225,11.674 516.847,11.674C519.47,11.674 525.219,90.389 525.219,90.389" style="fill:rgb(61,35,79);"/>
            </g>
            <g transform="matrix(0.426504,-0.904485,-0.904485,-0.426504,-27.1845,615.12)">
                <path d="M525.219,90.389C525.219,90.389 517.601,84.589 508.479,90.784C508.479,90.784 514.225,11.674 516.847,11.674C519.47,11.674 525.219,90.389 525.219,90.389" style="fill:rgb(61,35,79);"/>
            </g>
            <g transform="matrix(1,0,0,1,-421.179,-2.44626)">
                <path d="M516.573,122.942C516.573,122.942 514.259,167.296 506.931,181.18C499.603,195.065 543.524,193.22 535.857,180.795C529.364,170.272 526.179,124.984 526.986,122.556C526.218,123.284 521.393,125.642 516.573,122.942Z" style="fill:rgb(61,35,79);"/>
            </g>
        </g>
    </g>
</svg>
