<?xml version="1.0" encoding="UTF-8" standalone="no"?>
<!DOCTYPE svg PUBLIC "-//W3C//DTD SVG 1.1//EN" "http://www.w3.org/Graphics/SVG/1.1/DTD/svg11.dtd">
<svg width="100%" height="100%" viewBox="0 0 199 199" version="1.1" xmlns="http://www.w3.org/2000/svg" xmlns:xlink="http://www.w3.org/1999/xlink" xml:space="preserve" xmlns:serif="http://www.serif.com/" style="fill-rule:evenodd;clip-rule:evenodd;stroke-linecap:round;stroke-linejoin:round;stroke-miterlimit:1.5;">
    <g transform="matrix(1,0,0,1,-639.511,0)">
        <g id="Harriswingburg" transform="matrix(1,0,0,1,638.552,-0.65134)">
            <rect x="0.958" y="0.651" width="198.756" height="198.756" style="fill:none;"/>
            <g transform="matrix(1,0,0,1,-605.996,-15.5763)">
                <path d="M666.413,188.518C666.413,187.581 665.652,186.821 664.716,186.821L657.413,186.821C656.477,186.821 655.716,187.581 655.716,188.518L655.716,191.912C655.716,192.848 656.477,193.609 657.413,193.609L664.716,193.609C665.652,193.609 666.413,192.848 666.413,191.912L666.413,188.518Z" style="fill:rgb(61,35,79);"/>
            </g>
            <g transform="matrix(1,0,0,1,-549.429,-15.5763)">
                <path d="M666.413,188.518C666.413,187.581 665.652,186.821 664.716,186.821L657.413,186.821C656.477,186.821 655.716,187.581 655.716,188.518L655.716,191.912C655.716,192.848 656.477,193.609 657.413,193.609L664.716,193.609C665.652,193.609 666.413,192.848 666.413,191.912L666.413,188.518Z" style="fill:rgb(61,35,79);"/>
            </g>
            <g transform="matrix(1.17014,0,0,1,-724.203,-15.5763)">
                <rect x="667.852" y="160.08" width="45.459" height="24.272" style="fill:rgb(61,35,79);"/>
            </g>
            <g transform="matrix(1,0,0,1,-606.616,-13.7949)">
                <path d="M740.968,45.449C740.968,45.449 727.83,68.968 671.366,98.486L671.366,109.116C671.366,109.116 717.212,107.664 749.301,122.474L740.968,45.449Z" style="fill:rgb(61,35,79);"/>
            </g>
            <g transform="matrix(0.363756,-0.0140567,0.0386143,0.999254,-139.988,-5.84857)">
                <ellipse cx="758.413" cy="85.451" rx="25.147" ry="42.271" style="fill:rgb(61,35,79);"/>
            </g>
            <g transform="matrix(1,0,0,0.30303,-606.616,83.7608)">
                <rect x="660.875" y="139.971" width="60.784" height="33.94" style="fill:rgb(61,35,79);"/>
            </g>
            <g transform="matrix(1.10916,0,0,0.30303,-682.442,93.8999)">
                <path d="M721.659,139.971L660.875,139.971L664.009,173.911L717.956,173.911L721.659,139.971Z" style="fill:rgb(126,96,147);"/>
            </g>
            <g transform="matrix(1.21688,1.31919e-17,-3.60412e-18,-0.30303,-757.415,214.728)">
                <path d="M721.659,139.971L660.875,139.971L664.009,173.911L717.956,173.911L721.659,139.971Z" style="fill:rgb(126,96,147);"/>
            </g>
            <g transform="matrix(1,0,0,1,-606.616,-13.7949)">
                <path d="M675.891,130.935L696.461,130.524L696.667,139.986" style="fill:none;stroke:rgb(61,35,79);stroke-width:3.98px;"/>
            </g>
            <g transform="matrix(1,0,0,1,-606.616,-13.7949)">
                <path d="M677.948,99.052C677.948,97.462 676.658,96.172 675.068,96.172L669.309,96.172C667.719,96.172 666.429,97.462 666.429,99.052L666.429,141.837C666.429,143.426 667.719,144.717 669.309,144.717L675.068,144.717C676.658,144.717 677.948,143.426 677.948,141.837L677.948,99.052Z" style="fill:rgb(61,35,79);"/>
            </g>
            <g transform="matrix(1,0,0,1,-637.023,4.28408)">
                <circle cx="726.592" cy="112.342" r="4.628" style="fill:rgb(126,96,147);"/>
            </g>
            <g transform="matrix(0.999921,0.0125764,-0.0125764,0.999921,-633.65,-10.9602)">
                <path d="M757.709,51.105C757.709,51.105 751.519,58.219 737.358,68.041C731.229,72.291 723.633,77.039 714.413,81.938C714.074,82.107 713.937,82.52 714.107,82.858C714.276,83.197 714.689,83.334 715.027,83.165C724.559,78.678 732.446,74.262 738.831,70.277C753.933,60.851 760.652,53.79 760.652,53.79C761.393,52.978 761.335,51.717 760.523,50.976C759.711,50.236 758.45,50.293 757.709,51.105Z" style="fill:rgb(126,96,147);"/>
            </g>
            <g transform="matrix(0.89912,-0.437702,-0.437702,-0.89912,-526.293,475.772)">
                <path d="M755.86,56.46C755.714,56.597 755.537,56.762 755.355,56.929C753.801,58.352 750.338,61.379 744.808,65.125C737.954,69.768 727.92,75.542 714.406,80.73C714.056,80.875 713.655,80.709 713.509,80.36C713.364,80.01 713.53,79.608 713.88,79.463C733.269,70.795 745.002,61.281 750.269,56.419C751.895,54.918 752.888,53.869 753.29,53.445C753.459,53.267 753.567,53.166 753.603,53.133C754.277,52.522 758.53,53.203 756.338,56.037C756.198,56.208 756.037,56.349 755.86,56.46Z" style="fill:rgb(126,96,147);"/>
            </g>
            <g transform="matrix(0.999717,-0.0237981,0.0237981,0.999717,-639.617,21.977)">
                <path d="M712.03,83.092L749.206,74.383C749.211,74.382 749.217,74.38 749.222,74.379L763.67,70.834C764.73,70.542 765.353,69.444 765.061,68.384C764.768,67.324 763.671,66.701 762.611,66.994L748.389,71.36C748.405,71.355 711.788,82.178 711.788,82.178C711.536,82.245 711.385,82.504 711.452,82.756C711.518,83.009 711.778,83.159 712.03,83.092Z" style="fill:rgb(126,96,147);"/>
            </g>
            <g transform="matrix(0.691176,0,0,0.885246,-420.108,15.6169)">
                <path d="M697.597,98.758L683.609,98.758L683.609,123.853L695.951,123.853" style="fill:none;stroke:rgb(61,35,79);stroke-width:5.02px;"/>
            </g>
        </g>
    </g>
</svg>
