<?xml version="1.0" encoding="UTF-8" standalone="no"?>
<!DOCTYPE svg PUBLIC "-//W3C//DTD SVG 1.1//EN" "http://www.w3.org/Graphics/SVG/1.1/DTD/svg11.dtd">
<svg width="100%" height="100%" viewBox="0 0 199 199" version="1.1" xmlns="http://www.w3.org/2000/svg" xmlns:xlink="http://www.w3.org/1999/xlink" xml:space="preserve" xmlns:serif="http://www.serif.com/" style="fill-rule:evenodd;clip-rule:evenodd;stroke-linecap:round;stroke-linejoin:round;stroke-miterlimit:1.5;">
    <g transform="matrix(1,0,0,1,0,-219.709)">
        <g id="InvisibleMan" transform="matrix(1,0,0,1,-0.958427,219.058)">
            <rect x="0.958" y="0.651" width="198.756" height="198.756" style="fill:none;"/>
            <g transform="matrix(0.878453,0,0,0.788762,17.5745,-163.524)">
                <path d="M63.831,363.164C63.831,363.164 36.344,386.843 31.998,392.927C30.28,395.333 34.877,399.014 37.76,399.669C41.768,400.58 56.044,398.394 56.044,398.394C56.044,398.394 7.275,411.896 12.217,418.502C17.158,425.108 60.351,438.029 85.693,438.029C111.895,438.029 161.912,425.036 169.428,418.502C176.944,411.967 130.79,398.82 130.79,398.82C130.79,398.82 137.558,399.602 140.818,398.864C144.306,398.073 153.351,397.691 151.715,394.077C149.02,388.127 124.652,363.164 124.652,363.164C124.652,363.164 93.963,342.798 63.831,363.164Z" style="fill:rgb(61,35,79);"/>
            </g>
            <g transform="matrix(0.823346,0,0,0.823346,14.4348,23.2461)">
                <clipPath id="_clip1">
                    <path d="M104.413,31.209C154.424,31.209 158.023,58.815 158.023,92.818C158.023,126.821 134.001,154.427 104.413,154.427C74.825,154.427 50.803,126.821 50.803,92.818C50.803,58.815 54.402,31.209 104.413,31.209Z"/>
                </clipPath>
                <g clip-path="url(#_clip1)">
                    <g transform="matrix(1,0,0,1,0.958427,-219.058)">
                        <path d="M47.787,247.081L161.693,251.452L160.407,268.422L45.216,291.306L47.787,247.081Z" style="fill:rgb(126,96,147);"/>
                    </g>
                    <g transform="matrix(1,0,0,1,0.958427,-219.058)">
                        <path d="M68.997,284.219C71.465,284.219 159.701,303.017 159.701,303.017L160.327,312.4L47.193,304.584L48.633,286.688L68.997,284.219" style="fill:rgb(126,96,147);"/>
                    </g>
                    <g transform="matrix(1,0,0,1,0.958427,-219.058)">
                        <path d="M46.37,317.337L161.767,306.846L163.412,322.274L51.718,343.872L46.37,317.337Z" style="fill:rgb(126,96,147);"/>
                    </g>
                    <g transform="matrix(1,0,0,1,0.958427,-219.058)">
                        <path d="M43.902,336.055L153.127,340.786L150.865,347.574L49.456,353.334L43.902,336.055Z" style="fill:rgb(126,96,147);"/>
                    </g>
                    <g transform="matrix(1,0,0,1,0.958427,-219.058)">
                        <path d="M59.123,351.277L148.191,352.305L144.282,359.711L60.563,362.796L59.123,351.277Z" style="fill:rgb(126,96,147);"/>
                    </g>
                    <g transform="matrix(1,0,0,1,0.958427,-219.058)">
                        <path d="M137.494,357.448L70.437,367.321L76.196,374.727L126.798,374.932L141.197,358.065L137.494,357.448Z" style="fill:rgb(126,96,147);"/>
                    </g>
                </g>
            </g>
            <g transform="matrix(1,0,0,1,4.42125,-206.676)">
                <path d="M94.593,305.612C94.593,302.419 92.001,299.827 88.808,299.827L70.552,299.827C58.597,300.081 59.332,324.545 70.552,322.968C70.552,322.968 82.191,321.537 85.775,319.513C89.99,317.133 94.866,306.698 94.593,305.612Z" style="fill:rgb(61,35,79);"/>
            </g>
            <g transform="matrix(-1,0,0,1,198.141,-206.676)">
                <path d="M94.593,305.612C94.593,302.419 92.001,299.827 88.808,299.827L70.552,299.827C58.597,300.081 59.332,324.545 70.552,322.968C70.552,322.968 82.191,321.537 85.775,319.513C89.99,317.133 94.866,306.698 94.593,305.612Z" style="fill:rgb(61,35,79);"/>
            </g>
            <g transform="matrix(1,0,0,1,-1.76614,-206.676)">
                <path d="M98.7,306.368C98.7,306.368 102.811,303.193 107.301,306.47" style="fill:none;stroke:rgb(61,35,79);stroke-width:3.98px;"/>
            </g>
            <g transform="matrix(1.13335,0,0,1,-6.70359,-228.051)">
                <path d="M84.318,255.214C75.681,255.269 62.707,268.788 60.079,283.266C60.079,283.266 21.32,287.339 20.483,303.521C19.646,319.703 187.14,323.137 170.003,299.604C158.836,284.27 130.106,283.79 130.106,283.79C130.106,283.79 125.255,252.474 108.144,257.129C89.589,262.178 92.91,255.159 84.318,255.214Z" style="fill:rgb(61,35,79);"/>
            </g>
        </g>
    </g>
</svg>
