<?xml version="1.0" encoding="UTF-8" standalone="no"?>
<!DOCTYPE svg PUBLIC "-//W3C//DTD SVG 1.1//EN" "http://www.w3.org/Graphics/SVG/1.1/DTD/svg11.dtd">
<svg width="100%" height="100%" viewBox="0 0 199 199" version="1.1" xmlns="http://www.w3.org/2000/svg" xmlns:xlink="http://www.w3.org/1999/xlink" xml:space="preserve" xmlns:serif="http://www.serif.com/" style="fill-rule:evenodd;clip-rule:evenodd;stroke-linecap:round;stroke-linejoin:round;stroke-miterlimit:1.5;">
    <g transform="matrix(1,0,0,1,-212.206,0)">
        <g id="Locomax" transform="matrix(1,0,0,1,211.248,-0.65134)">
            <rect x="0.958" y="0.651" width="198.756" height="198.756" style="fill:none;"/>
            <g transform="matrix(1.4168,0,0,1.4168,-273.601,-47.0012)">
                <circle cx="288.121" cy="130.165" r="12.441" style="fill:rgb(126,96,147);"/>
            </g>
            <g transform="matrix(0.819043,0,0,0.819043,-77.611,38.0112)">
                <circle cx="288.121" cy="130.165" r="12.441" style="fill:rgb(126,96,147);"/>
            </g>
            <g transform="matrix(0.652228,0,0,0.652228,-11.3317,61.2235)">
                <circle cx="288.121" cy="130.165" r="12.441" style="fill:rgb(126,96,147);"/>
            </g>
            <g transform="matrix(1.4168,0,0,1.4168,-343.94,-47.0012)">
                <circle cx="288.121" cy="130.165" r="12.441" style="fill:rgb(126,96,147);"/>
            </g>
            <g transform="matrix(1.4168,0,0,1.4168,-308.764,-47.0012)">
                <circle cx="288.121" cy="130.165" r="12.441" style="fill:rgb(126,96,147);"/>
            </g>
            <g transform="matrix(1.14034,0,0,1.14034,-247.178,-6.68646)">
                <path d="M382.025,105.935C384.626,116.341 384.261,127.873 379.073,135.584C378.308,136.721 366.25,136.504 349.821,136.554C349.316,136.6 348.806,136.624 348.29,136.624L331.749,136.624C331.749,136.624 331.749,129.078 331.749,123.954C331.749,122.726 331.261,121.549 330.393,120.681C329.525,119.813 328.348,119.325 327.12,119.325C316.664,119.325 291.316,119.325 280.859,119.325C279.632,119.325 278.455,119.813 277.587,120.681C276.718,121.549 276.231,122.726 276.231,123.954L276.231,136.624L266.463,136.624C257.267,136.624 250.893,136.316 250.893,127.12C250.893,127.12 254.487,87.277 247.858,76.131C246.745,74.26 245.696,74.157 243.108,74.096C243.057,74.095 242.032,73.87 241.98,73.863C237.349,73.254 261.429,69.977 266.463,69.977L326.024,69.977L326.024,68.371C326.024,67.059 327.09,65.993 328.403,65.993L336.324,65.993C337.636,65.993 338.702,67.059 338.702,68.371L338.702,70.201C351.439,70.584 362.979,73.297 375.049,90.186C375.581,90.93 376.094,91.713 376.586,92.529L379.534,92.529C381.522,92.529 383.136,94.143 383.136,96.131L383.136,103.334C383.136,104.356 382.709,105.279 382.025,105.935Z" style="fill:rgb(61,35,79);"/>
            </g>
            <g transform="matrix(0.963715,-0.0708021,0.12715,1.13106,-168.991,8.51573)">
                <path d="M262.938,133.388L294.268,125.443" style="fill:none;stroke:rgb(61,35,79);stroke-width:3.7px;"/>
            </g>
            <g transform="matrix(1.14034,0,0,1.14034,-237.568,2.02817)">
                <path d="M323.96,58.22C323.96,58.22 321.875,49.5 313.723,51.017C313.723,51.017 312.394,56.592 307.086,56.971C301.778,57.35 298.936,53.102 300.453,49.121C300.453,49.121 296.252,54.15 291.611,52.136C287.247,50.242 288.192,45.192 289.905,43.683C289.905,43.683 287.159,45.502 284.27,44.491C281.171,43.406 279.415,38.092 284.727,34.506C284.727,34.506 282.765,30.771 286.099,27.646C288.133,25.739 291.98,24.919 294.023,28.4C294.023,28.4 295.924,24.97 299.077,24.116C303.885,22.815 308.531,25.755 307.467,31.491C307.467,31.491 310.079,28.418 314.056,30.137C316.164,31.047 316.982,33.719 315.927,36.844C315.927,36.844 318.239,35.166 320.497,36.81C321.734,37.711 321.993,40.287 320.865,41.812C320.865,41.812 328.51,51.965 323.96,58.22Z" style="fill:rgb(126,96,147);"/>
            </g>
            <g transform="matrix(1.14034,0,0,1.14034,-240,-4.99758)">
                <path d="M359.973,122.268C359.973,122.268 359.412,93.344 334.056,93.344L222.888,93.344" style="fill:none;stroke:rgb(126,96,147);stroke-width:4.13px;stroke-linecap:butt;"/>
            </g>
            <g transform="matrix(1.14034,0,0,1.14034,-240,-1.6771)">
                <path d="M324.892,119.745L377.305,119.745" style="fill:none;stroke:rgb(126,96,147);stroke-width:1.91px;"/>
            </g>
            <g transform="matrix(1.10866,0,0,1.14034,-229.709,2.61185)">
                <path d="M324.892,119.745L377.305,119.745" style="fill:none;stroke:rgb(126,96,147);stroke-width:1.94px;"/>
            </g>
            <g transform="matrix(1.08491,0,0,1.14034,-221.99,6.9008)">
                <path d="M324.892,119.745L377.305,119.745" style="fill:none;stroke:rgb(126,96,147);stroke-width:1.96px;"/>
            </g>
            <g transform="matrix(1.25301,0,0,1.14034,-270.672,-2.90845)">
                <path d="M277.266,68.866L221.304,68.866" style="fill:none;stroke:rgb(61,35,79);stroke-width:3.63px;stroke-linecap:butt;"/>
            </g>
            <g transform="matrix(1.01425,0,0,1.14034,-204.266,7.53722)">
                <path d="M277.266,68.866L221.304,68.866" style="fill:none;stroke:rgb(61,35,79);stroke-width:2.35px;stroke-linecap:butt;"/>
            </g>
            <g transform="matrix(1.01425,0,0,1.14034,-213.028,2.55652)">
                <path d="M277.266,68.866L221.304,68.866" style="fill:none;stroke:rgb(61,35,79);stroke-width:2.35px;stroke-linecap:butt;"/>
            </g>
            <g transform="matrix(1.01425,0,0,1.14034,-204.266,31.6107)">
                <path d="M277.266,68.866L221.304,68.866" style="fill:none;stroke:rgb(61,35,79);stroke-width:2.35px;stroke-linecap:butt;"/>
            </g>
            <g transform="matrix(1.01425,0,0,1.14034,-211.011,12.3796)">
                <path d="M277.266,68.866L221.304,68.866" style="fill:none;stroke:rgb(61,35,79);stroke-width:1.69px;stroke-linecap:butt;"/>
            </g>
            <g transform="matrix(1.01425,0,0,1.14034,-202.617,16.8069)">
                <path d="M277.266,68.866L221.304,68.866" style="fill:none;stroke:rgb(61,35,79);stroke-width:1.69px;stroke-linecap:butt;"/>
            </g>
            <g transform="matrix(0.821106,0,0,1.14034,-157.458,36.453)">
                <path d="M277.266,68.866L221.304,68.866" style="fill:none;stroke:rgb(61,35,79);stroke-width:1.83px;stroke-linecap:butt;"/>
            </g>
            <g transform="matrix(1.68039,0.028451,-0.14927,1.14427,-380.159,-17.4657)">
                <path d="M276.87,130.039L295.437,130.721" style="fill:none;stroke:rgb(61,35,79);stroke-width:2.92px;"/>
            </g>
            <g transform="matrix(1.65153,0,0,1.65153,-403.34,-68.1729)">
                <circle cx="304.317" cy="126.371" r="2.346" style="fill:rgb(61,35,79);"/>
            </g>
            <g transform="matrix(0.737643,-0.00111028,0.0017164,1.14034,-82.7456,-7.2231)">
                <ellipse cx="366.039" cy="100.716" rx="4.295" ry="6.961" style="fill:rgb(126,96,147);"/>
            </g>
        </g>
    </g>
</svg>
