<?xml version="1.0" encoding="UTF-8" standalone="no"?>
<!DOCTYPE svg PUBLIC "-//W3C//DTD SVG 1.1//EN" "http://www.w3.org/Graphics/SVG/1.1/DTD/svg11.dtd">
<svg width="100%" height="100%" viewBox="0 0 199 199" version="1.1" xmlns="http://www.w3.org/2000/svg" xmlns:xlink="http://www.w3.org/1999/xlink" xml:space="preserve" xmlns:serif="http://www.serif.com/" style="fill-rule:evenodd;clip-rule:evenodd;stroke-linejoin:round;stroke-miterlimit:2;">
    <g transform="matrix(1,0,0,1,-213.708,-219.709)">
        <g id="NumbersNature" transform="matrix(1,0,0,1,212.75,219.058)">
            <rect x="0.958" y="0.651" width="198.756" height="198.756" style="fill:none;"/>
            <g transform="matrix(1,0,0,1,-212.75,-219.058)">
                <path d="M332.155,344.129L337.298,329.273L341.869,325.416L337.441,344.271L332.155,344.129Z" style="fill:rgb(61,35,79);"/>
            </g>
            <g transform="matrix(1.37037,0,0,1.50538,-315.139,-412.987)">
                <path d="M289.98,363.449C288.047,360.264 284.302,360.243 281.232,360.269C275.365,360.318 271.945,356.016 271.51,351.298L274.123,348.715C276.975,353.659 275.141,355.075 280.801,356.17C284.629,356.911 286.001,355.102 290.191,358.058L289.98,363.449Z" style="fill:rgb(61,35,79);"/>
            </g>
            <g transform="matrix(1,0,0,1,-213.75,-220.915)">
                <path d="M326.001,357.729C328.716,354.595 330.882,349.942 337.847,349.525C337.847,349.525 343.704,349.382 346.275,345.811C349.226,341.712 350.56,327.669 350.56,327.669L345.989,326.384C345.989,326.384 345.561,337.24 343.418,341.24C341.275,345.239 333.994,344.874 330.355,346.096C325.486,347.732 320.563,356.096 320.563,356.096L326.001,357.729Z" style="fill:rgb(61,35,79);"/>
            </g>
            <g transform="matrix(1,0,0,1,-217.772,-219.895)">
                <path d="M296.656,329.817C296.656,329.817 305.763,375.679 284.938,389.522C278.901,393.535 270.527,398.022 270.341,401.78C270.149,405.67 290.724,399.279 304.29,385.74C304.29,385.74 307.084,405.394 313.305,405.802C318.925,406.172 321.503,401.275 323.089,385.222C329.372,397.738 344.675,406.773 353.571,402.913C358.613,400.726 342.423,395.992 333.335,379.943C328.023,370.562 330.693,336.512 339.342,327.864L312.001,312.24L296.377,322.005L296.656,329.817Z" style="fill:rgb(61,35,79);"/>
            </g>
            <g transform="matrix(1,0,0,1,-217.654,-223.962)">
                <path d="M252.891,308.99C252.891,308.99 245.272,316.665 251.811,324.839C251.811,324.839 245.025,333.628 253.145,337.525C256.311,348.273 268.729,344.83 271.418,340.051C271.418,340.051 279.994,350.606 289.048,338.736C292.947,340.239 297.773,340.891 301.868,337.956C305.505,335.349 307.134,333.407 306.399,328.48C306.399,328.48 308.552,337.871 321.085,332.967C321.085,332.967 322.599,342.879 333.639,337.728C339.672,341.048 344.879,337.144 345.724,333.994C349.055,337.119 355.369,340.155 359.774,333.116C359.774,333.116 363.318,342.6 374.299,334.871C387.216,335.314 386.932,324.003 379.856,319.889C379.856,319.889 383.125,299.727 369.503,304.631C369.503,304.631 383.39,286.93 361.81,281.644C361.81,281.644 371.561,261.134 352.61,260.493C352.61,260.493 350.651,242.476 336.483,250.105C336.483,250.105 320.76,244.542 321.005,258.314C321.005,258.314 307.146,254.393 306.293,267.577C306.293,267.577 300.633,255.193 289.945,264.853C289.945,264.853 275.453,258.867 275.778,273.026C275.778,273.026 262.842,273.439 268.694,284.469C268.694,284.469 255.436,280.808 256.706,294.823C256.706,294.823 244.717,298.637 252.891,308.99Z" style="fill:rgb(126,96,147);"/>
            </g>
            <g transform="matrix(-0.635492,-0.402716,0.348943,-0.550638,119.329,377.189)">
                <path d="M264.915,308.317C265.645,308.265 267.936,311.788 267.936,315.946C267.936,320.103 266.741,325.052 264.585,325.052C262.429,325.052 261.813,319.997 261.813,315.84C261.813,311.682 263.934,308.386 264.915,308.317Z" style="fill:rgb(61,35,79);"/>
            </g>
            <g transform="matrix(-0.635492,-0.402716,0.348943,-0.550638,184.324,328.443)">
                <path d="M264.915,308.317C265.645,308.265 267.936,311.788 267.936,315.946C267.936,320.103 266.741,325.052 264.585,325.052C262.429,325.052 261.813,319.997 261.813,315.84C261.813,311.682 263.934,308.386 264.915,308.317Z" style="fill:rgb(61,35,79);"/>
            </g>
            <g transform="matrix(-0.634917,0.403621,-0.349728,-0.55014,429.311,160.685)">
                <path d="M264.915,308.317C265.645,308.265 267.936,311.788 267.936,315.946C267.936,320.103 266.741,325.052 264.585,325.052C262.429,325.052 261.813,319.997 261.813,315.84C261.813,311.682 263.934,308.386 264.915,308.317Z" style="fill:rgb(61,35,79);"/>
            </g>
            <g transform="matrix(-0.116365,-0.624744,0.534763,-0.0996051,-81.6635,282.45)">
                <path d="M264.915,308.317C265.645,308.265 267.936,311.788 267.936,315.946C267.936,320.103 266.741,325.052 264.585,325.052C262.429,325.052 261.813,319.997 261.813,315.84C261.813,311.682 263.934,308.386 264.915,308.317Z" style="fill:rgb(61,35,79);"/>
            </g>
            <g transform="matrix(-0.601628,-0.20467,0.175192,-0.514976,216.986,268.799)">
                <path d="M264.915,308.317C265.645,308.265 267.936,311.788 267.936,315.946C267.936,320.103 266.741,325.052 264.585,325.052C262.429,325.052 261.813,319.997 261.813,315.84C261.813,311.682 263.934,308.386 264.915,308.317Z" style="fill:rgb(61,35,79);"/>
            </g>
            <g transform="matrix(-0.450723,-0.44799,0.383466,-0.385806,137.172,340.106)">
                <path d="M264.915,308.317C265.645,308.265 267.936,311.788 267.936,315.946C267.936,320.103 266.741,325.052 264.585,325.052C262.429,325.052 261.813,319.997 261.813,315.84C261.813,311.682 263.934,308.386 264.915,308.317Z" style="fill:rgb(61,35,79);"/>
            </g>
            <g transform="matrix(-0.844676,-0.535277,0.463804,-0.731891,129.196,469.687)">
                <path d="M264.915,308.317C265.645,308.265 267.936,311.788 267.936,315.946C267.936,320.103 266.741,325.052 264.585,325.052C262.429,325.052 261.813,319.997 261.813,315.84C261.813,311.682 263.934,308.386 264.915,308.317Z" style="fill:rgb(61,35,79);"/>
            </g>
            <g transform="matrix(-0.935636,0.352967,-0.305837,-0.810705,465.052,222.768)">
                <path d="M264.915,308.317C265.645,308.265 267.936,311.788 267.936,315.946C267.936,320.103 266.741,325.052 264.585,325.052C262.429,325.052 261.813,319.997 261.813,315.84C261.813,311.682 263.934,308.386 264.915,308.317Z" style="fill:rgb(61,35,79);"/>
            </g>
        </g>
    </g>
</svg>
