<?xml version="1.0" encoding="UTF-8" standalone="no"?>
<!DOCTYPE svg PUBLIC "-//W3C//DTD SVG 1.1//EN" "http://www.w3.org/Graphics/SVG/1.1/DTD/svg11.dtd">
<svg width="100%" height="100%" viewBox="0 0 199 199" version="1.1" xmlns="http://www.w3.org/2000/svg" xmlns:xlink="http://www.w3.org/1999/xlink" xml:space="preserve" xmlns:serif="http://www.serif.com/" style="fill-rule:evenodd;clip-rule:evenodd;stroke-linecap:round;stroke-linejoin:round;stroke-miterlimit:1.5;">
    <g transform="matrix(1,0,0,1,-426.905,-219.709)">
        <g id="Prosthetics" transform="matrix(1,0,0,1,425.947,219.058)">
            <rect x="0.958" y="0.651" width="198.756" height="198.756" style="fill:none;"/>
            <g transform="matrix(1.13604,0.155983,-0.155983,1.13604,-430.227,-353.694)">
                <path d="M442.092,318.387C442.092,318.387 465.866,364.923 507.113,390.1L516.499,361.954C516.499,361.954 505.714,310.347 473.396,288.027L442.092,318.387Z" style="fill:rgb(61,35,79);"/>
            </g>
            <g transform="matrix(0.277291,-1.11267,1.11267,0.277291,-391.863,580.053)">
                <path d="M449.5,329.095C449.5,329.095 460.902,352.864 502.149,378.04L513.55,369.334C513.55,369.334 512.575,359.734 475.809,319.655L449.5,329.095Z" style="fill:rgb(61,35,79);"/>
            </g>
            <g transform="matrix(1.5991,0.219561,-0.219561,1.5991,-620.207,-540.977)">
                <circle cx="460.4" cy="317.082" r="22.668" style="fill:rgb(126,96,147);"/>
            </g>
            <g transform="matrix(0.962759,0.13219,-0.13219,0.962759,-308.101,-214.096)">
                <circle cx="460.4" cy="317.082" r="22.668" style="fill:rgb(126,96,147);"/>
            </g>
            <g transform="matrix(0.971888,-0.608573,0.608573,0.971888,-597.362,128.385)">
                <path d="M566.113,352.719C566.781,354.568 598.172,344.238 602.077,334.955C605.731,326.27 597.921,309.52 592.028,306.125C583.145,301.007 576.762,307.57 573.087,312.215C573.811,310.802 579.753,304.718 570.738,303.052C569.848,302.888 568.389,302.913 567.372,303.631C560.993,308.137 557.989,315.148 561.113,323.282C562.385,326.593 560.928,335.603 560.928,335.603C560.928,335.603 568.728,343.564 566.113,352.719Z" style="fill:rgb(126,96,147);"/>
            </g>
            <g transform="matrix(0.971888,-0.608573,0.608573,0.971888,-602.354,128.902)">
                <path d="M563.419,326.175C563.419,326.175 562.183,319.425 562.481,316.747C562.778,314.068 564.621,308.612 569.241,305.601C572.794,303.284 577.78,303.17 578.979,307.756C579.462,309.606 575.653,314.474 576.191,318.701C576.907,324.329 584.295,325.265 584.295,325.265" style="fill:none;stroke:white;stroke-width:3.47px;"/>
            </g>
            <g transform="matrix(1.5991,0.219561,-0.219561,1.5991,-628.392,-526.675)">
                <circle cx="464.121" cy="307.806" r="15.135" style="fill:rgb(61,35,79);"/>
            </g>
            <g transform="matrix(0.786354,0.107969,-0.107969,0.786354,-238.106,-139.563)">
                <circle cx="464.121" cy="307.806" r="15.135" style="fill:rgb(61,35,79);"/>
            </g>
        </g>
    </g>
</svg>
