<?xml version="1.0" encoding="UTF-8" standalone="no"?>
<!DOCTYPE svg PUBLIC "-//W3C//DTD SVG 1.1//EN" "http://www.w3.org/Graphics/SVG/1.1/DTD/svg11.dtd">
<svg width="100%" height="100%" viewBox="0 0 199 199" version="1.1" xmlns="http://www.w3.org/2000/svg" xmlns:xlink="http://www.w3.org/1999/xlink" xml:space="preserve" xmlns:serif="http://www.serif.com/" style="fill-rule:evenodd;clip-rule:evenodd;stroke-linejoin:round;stroke-miterlimit:2;">
    <g transform="matrix(1,0,0,1,-856.361,-219.709)">
        <g id="Rain" transform="matrix(1,0,0,1,855.402,219.058)">
            <rect x="0.958" y="0.651" width="198.756" height="198.756" style="fill:none;"/>
            <g transform="matrix(1,0,0,1,-645.373,-240.289)">
                <path d="M681.202,333.701C675.034,332.728 670.653,346.544 681.504,346.371C680.872,351.086 689.922,359.069 695.725,350.67C694.592,354.428 698.65,369.887 715.166,358.717C715.166,358.717 720.262,370.37 730.944,364.62C730.36,365.204 742.563,373.191 747.332,362.469C748.606,365.542 763.664,369.723 767.044,358.081C767.044,358.081 780.589,374.66 788.985,360.266C790.365,363.238 814.637,371.758 814.774,350.071C814.774,350.071 830.092,341.557 816.581,331.14C816.581,331.14 820.7,311.31 801.702,313.273C801.702,313.273 813.942,288.136 788.693,291.075C788.693,291.075 787.839,269.331 768.366,279.248C767.969,270.177 752.761,259.629 744.304,276.602C744.304,276.602 727.274,271.12 727.372,291.967C727.372,291.967 713.986,294.616 717.616,308.388C717.616,308.388 700.566,300.752 696.961,319.601C696.961,319.601 681.121,315.884 681.202,333.701Z" style="fill:rgb(61,35,79);"/>
            </g>
            <g transform="matrix(-1,0,0,1,756.397,-219.058)">
                <path d="M690.411,351.468L708.403,391.651C708.852,392.654 708.402,393.834 707.399,394.283C706.396,394.732 705.216,394.282 704.767,393.279L686.775,353.096C686.326,352.093 686.775,350.914 687.779,350.464C688.782,350.015 689.961,350.465 690.411,351.468Z" style="fill:rgb(126,96,147);"/>
            </g>
            <g transform="matrix(-1.00358,0.00799395,-0.00799395,1.01785,794.663,-229.352)">
                <path d="M690.411,351.468L708.403,391.651C708.843,392.633 708.385,393.796 707.382,394.245C706.379,394.694 705.207,394.261 704.767,393.279L686.775,353.096C686.335,352.114 686.793,350.952 687.796,350.502C688.799,350.053 689.971,350.486 690.411,351.468Z" style="fill:rgb(126,96,147);"/>
            </g>
            <g transform="matrix(-1.00358,0.00799395,-0.00799395,1.01785,832.148,-228.153)">
                <path d="M690.411,351.468L708.403,391.651C708.843,392.633 708.385,393.796 707.382,394.245C706.379,394.694 705.207,394.261 704.767,393.279L686.775,353.096C686.335,352.114 686.793,350.952 687.796,350.502C688.799,350.053 689.971,350.486 690.411,351.468Z" style="fill:rgb(126,96,147);"/>
            </g>
            <g transform="matrix(-0.929249,-0.15801,0.15801,0.64711,638.52,8.66608)">
                <path d="M690.411,351.468L708.403,391.651C709.182,393.392 709.001,395.17 707.997,395.619C706.994,396.068 705.547,395.02 704.767,393.279L686.775,353.096C685.995,351.355 686.177,349.577 687.181,349.128C688.184,348.679 689.631,349.727 690.411,351.468Z" style="fill:rgb(126,96,147);"/>
            </g>
            <g transform="matrix(-0.929249,-0.15801,0.15801,0.64711,701.793,17.0625)">
                <path d="M690.411,351.468L708.403,391.651C709.182,393.392 709.001,395.17 707.997,395.619C706.994,396.068 705.547,395.02 704.767,393.279L686.775,353.096C685.995,351.355 686.177,349.577 687.181,349.128C688.184,348.679 689.631,349.727 690.411,351.468Z" style="fill:rgb(126,96,147);"/>
            </g>
            <g transform="matrix(-0.929249,-0.15801,0.15801,0.64711,687.099,50.3483)">
                <path d="M690.411,351.468L708.403,391.651C709.182,393.392 709.001,395.17 707.997,395.619C706.994,396.068 705.547,395.02 704.767,393.279L686.775,353.096C685.995,351.355 686.177,349.577 687.181,349.128C688.184,348.679 689.631,349.727 690.411,351.468Z" style="fill:rgb(126,96,147);"/>
            </g>
            <g transform="matrix(-0.929249,-0.15801,0.15801,0.64711,667.907,14.6635)">
                <path d="M690.411,351.468L708.403,391.651C709.182,393.392 709.001,395.17 707.997,395.619C706.994,396.068 705.547,395.02 704.767,393.279L686.775,353.096C685.995,351.355 686.177,349.577 687.181,349.128C688.184,348.679 689.631,349.727 690.411,351.468Z" style="fill:rgb(126,96,147);"/>
            </g>
            <g transform="matrix(-0.929249,-0.15801,0.15801,0.64711,653.513,45.2505)">
                <path d="M690.411,351.468L708.403,391.651C709.182,393.392 709.001,395.17 707.997,395.619C706.994,396.068 705.547,395.02 704.767,393.279L686.775,353.096C685.995,351.355 686.177,349.577 687.181,349.128C688.184,348.679 689.631,349.727 690.411,351.468Z" style="fill:rgb(126,96,147);"/>
            </g>
            <g transform="matrix(5.21227,0,0,5.21227,-3787.7,-1451.63)">
                <text x="743.378px" y="298.685px" style="font-family:'LeagueSpartan-Bold', 'League Spartan';font-weight:700;font-size:12px;fill:white;">2</text>
            </g>
        </g>
    </g>
</svg>
