<?xml version="1.0" encoding="UTF-8" standalone="no"?>
<!DOCTYPE svg PUBLIC "-//W3C//DTD SVG 1.1//EN" "http://www.w3.org/Graphics/SVG/1.1/DTD/svg11.dtd">
<svg width="100%" height="100%" viewBox="0 0 199 199" version="1.1" xmlns="http://www.w3.org/2000/svg" xmlns:xlink="http://www.w3.org/1999/xlink" xml:space="preserve" xmlns:serif="http://www.serif.com/" style="fill-rule:evenodd;clip-rule:evenodd;stroke-linecap:round;stroke-linejoin:round;stroke-miterlimit:1.5;">
    <g transform="matrix(1,0,0,1,-3.00982,0)">
        <g id="Saxophone" transform="matrix(1,0,0,1,2.05139,-0.65134)">
            <rect x="0.958" y="0.651" width="198.756" height="198.756" style="fill:none;"/>
            <g transform="matrix(-1.50677,0,0,1.50677,290.086,-70.6266)">
                <path d="M134.07,58.336C134.07,58.336 128.015,61.343 117.21,66.983C101.678,75.091 81.19,79.564 115.995,123.934C127.198,138.215 132.67,148.041 133.362,149.166C134.984,151.803 133.181,152.033 132.311,150.828C123.843,139.097 116.181,133.735 108.528,129.343C106.261,128.041 104.357,127.041 101.611,124.439C98.238,121.242 86.232,149.145 93.696,149.049C108.288,148.861 111.072,159.811 124.479,169.533C143.657,183.442 166.043,162.803 150.207,138.952C142.306,127.053 130.658,114.736 111.442,88.625C106.46,81.856 112.66,77.678 121.25,72.47C127.154,68.891 129.324,66.051 131.345,64.017C136.019,59.311 134.07,58.336 134.07,58.336Z" style="fill:rgb(61,35,79);"/>
            </g>
            <g transform="matrix(-0.835036,0.825073,0.935281,0.946574,83.4876,-76.152)">
                <path d="M50.419,44.038C50.584,43.473 51.156,43.076 51.817,43.066C52.477,43.057 53.064,43.438 53.249,43.998C54.564,47.964 56.348,53.348 56.886,54.97C56.989,55.281 56.964,55.615 56.816,55.912C56.085,57.381 53.851,61.866 53.851,61.866L48.856,65.808C48.856,65.808 47.815,55.634 47.638,53.896C47.621,53.73 47.636,53.562 47.683,53.4C48.006,52.295 49.361,47.66 50.419,44.038Z" style="fill:rgb(61,35,79);"/>
            </g>
            <g transform="matrix(0.210769,0.646232,-0.646232,0.210769,160.253,3.76539)">
                <circle cx="94.771" cy="81.684" r="6.072" style="fill:rgb(126,96,147);"/>
            </g>
            <g transform="matrix(0.210769,0.646232,-0.646232,0.210769,136.093,39.2157)">
                <circle cx="94.771" cy="81.684" r="6.072" style="fill:rgb(126,96,147);"/>
            </g>
            <g transform="matrix(0.210769,0.646232,-0.646232,0.210769,154.458,12.1529)">
                <circle cx="94.771" cy="81.684" r="6.072" style="fill:rgb(126,96,147);"/>
            </g>
            <g transform="matrix(0.210769,0.646232,-0.646232,0.210769,129.975,47.9902)">
                <circle cx="94.771" cy="81.684" r="6.072" style="fill:rgb(126,96,147);"/>
            </g>
            <g transform="matrix(0.210769,0.646232,-0.646232,0.210769,142.055,30.211)">
                <circle cx="94.771" cy="81.684" r="6.072" style="fill:rgb(126,96,147);"/>
            </g>
            <g transform="matrix(0.210769,0.646232,-0.646232,0.210769,118.076,65.8468)">
                <circle cx="94.771" cy="81.684" r="6.072" style="fill:rgb(126,96,147);"/>
            </g>
            <g transform="matrix(-0.992987,-0.232599,-0.232599,0.992987,231.999,81.243)">
                <circle cx="94.771" cy="81.684" r="6.072" style="fill:rgb(126,96,147);"/>
            </g>
            <g transform="matrix(0.210769,0.646232,-0.646232,0.210769,148.436,21.0126)">
                <circle cx="94.771" cy="81.684" r="6.072" style="fill:rgb(126,96,147);"/>
            </g>
            <g transform="matrix(0.210769,0.646232,-0.646232,0.210769,123.953,56.85)">
                <circle cx="94.771" cy="81.684" r="6.072" style="fill:rgb(126,96,147);"/>
            </g>
            <g transform="matrix(-0.992987,-0.232599,-0.232599,0.992987,218.078,92.9436)">
                <circle cx="94.771" cy="81.684" r="6.072" style="fill:rgb(126,96,147);"/>
            </g>
            <g transform="matrix(-0.992987,-0.232599,-0.232599,0.992987,204.985,105.812)">
                <circle cx="94.771" cy="81.684" r="6.072" style="fill:rgb(126,96,147);"/>
            </g>
            <g transform="matrix(0.276701,0.867442,-1.0278,0.327852,224.929,-43.1948)">
                <ellipse cx="159.676" cy="121.512" rx="23.223" ry="5.924" style="fill:rgb(61,35,79);"/>
            </g>
            <g transform="matrix(1.20275,0.132898,0.10889,1.14446,-24.7032,-22.2885)">
                <path d="M119.262,64.528L66.371,132.395" style="fill:none;stroke:rgb(126,96,147);stroke-width:1.54px;"/>
            </g>
            <g transform="matrix(1.19684,0.140324,0.116474,1.13494,-42.9877,-19.5213)">
                <path d="M119.262,64.528L66.371,132.395" style="fill:none;stroke:rgb(126,96,147);stroke-width:1.55px;"/>
            </g>
            <g transform="matrix(1.29796,0.0132759,-0.0132759,1.29796,-35.0048,-22.4472)">
                <path d="M119.262,64.528L66.371,132.395" style="fill:none;stroke:rgb(126,96,147);stroke-width:1.54px;"/>
            </g>
            <g transform="matrix(1.29803,0,0,1.29803,-25.8106,-21.451)">
                <path d="M116.921,45.631C116.921,45.631 138.945,48.638 123.258,61.671" style="fill:none;stroke:rgb(126,96,147);stroke-width:1.54px;"/>
            </g>
            <g transform="matrix(1.29803,0,0,1.29803,-25.8106,-21.451)">
                <path d="M128.401,50.993C128.401,50.993 137.298,57.122 130.474,67.738" style="fill:none;stroke:rgb(126,96,147);stroke-width:1.54px;"/>
            </g>
            <g transform="matrix(1.29326,0.111089,-0.111089,1.29326,-16.0777,-34.5354)">
                <path d="M118.95,81.017L123.681,83.808" style="fill:none;stroke:rgb(126,96,147);stroke-width:1.54px;"/>
            </g>
            <g transform="matrix(1.29326,0.111089,-0.111089,1.29326,-20.3613,-25.0863)">
                <path d="M118.95,81.017L123.681,83.808" style="fill:none;stroke:rgb(126,96,147);stroke-width:1.54px;"/>
            </g>
            <g transform="matrix(1.29326,0.111089,-0.111089,1.29326,-27.0387,-16.7711)">
                <path d="M118.95,81.017L123.681,83.808" style="fill:none;stroke:rgb(126,96,147);stroke-width:1.54px;"/>
            </g>
            <g transform="matrix(1.29326,0.111089,-0.111089,1.29326,-33.2121,-7.82591)">
                <path d="M118.95,81.017L123.681,83.808" style="fill:none;stroke:rgb(126,96,147);stroke-width:1.54px;"/>
            </g>
            <g transform="matrix(1.29326,0.111089,-0.111089,1.29326,-39.8895,1.37122)">
                <path d="M118.95,81.017L123.681,83.808" style="fill:none;stroke:rgb(126,96,147);stroke-width:1.54px;"/>
            </g>
            <g transform="matrix(1.29326,0.111089,-0.111089,1.29326,-45.9369,10.0644)">
                <path d="M118.95,81.017L123.681,83.808" style="fill:none;stroke:rgb(126,96,147);stroke-width:1.54px;"/>
            </g>
            <g transform="matrix(1.29326,0.111089,-0.111089,1.29326,-52.2363,18.5056)">
                <path d="M118.95,81.017L123.681,83.808" style="fill:none;stroke:rgb(126,96,147);stroke-width:1.54px;"/>
            </g>
            <g transform="matrix(1.23172,0.409571,-0.409571,1.23172,6.9017,-7.77595)">
                <path d="M118.95,81.017L123.681,83.808" style="fill:none;stroke:rgb(126,96,147);stroke-width:1.54px;"/>
            </g>
            <g transform="matrix(1.23743,0.391964,-0.391964,1.23743,-9.08906,7.42537)">
                <path d="M118.95,81.017L123.681,83.808" style="fill:none;stroke:rgb(126,96,147);stroke-width:1.54px;"/>
            </g>
            <g transform="matrix(1.19086,0.516443,-0.516443,1.19086,-7.1309,8.87154)">
                <path d="M118.95,81.017L123.681,83.808" style="fill:none;stroke:rgb(126,96,147);stroke-width:1.54px;"/>
            </g>
            <g transform="matrix(1.29326,0.111089,-0.111089,1.29326,-58.2837,27.1988)">
                <path d="M118.95,81.017L123.681,83.808" style="fill:none;stroke:rgb(126,96,147);stroke-width:1.54px;"/>
            </g>
        </g>
    </g>
</svg>
