<?xml version="1.0" encoding="UTF-8" standalone="no"?>
<!DOCTYPE svg PUBLIC "-//W3C//DTD SVG 1.1//EN" "http://www.w3.org/Graphics/SVG/1.1/DTD/svg11.dtd">
<svg width="100%" height="100%" viewBox="0 0 199 199" version="1.1" xmlns="http://www.w3.org/2000/svg" xmlns:xlink="http://www.w3.org/1999/xlink" xml:space="preserve" xmlns:serif="http://www.serif.com/" style="fill-rule:evenodd;clip-rule:evenodd;stroke-linejoin:round;stroke-miterlimit:2;">
    <g transform="matrix(1,0,0,1,-426.831,-434.664)">
        <g id="Spread-3" serif:id="Spread 3" transform="matrix(1,0,0,1,425.872,434.013)">
            <rect x="0.958" y="0.651" width="198.756" height="198.756" style="fill:none;"/>
            <g transform="matrix(1,0,0,1,-1.38071,-422.763)">
                <path d="M189.624,475.608C189.624,472.689 187.384,471.229 184.335,470.319C184.335,470.319 126.41,457.788 100.52,481.423C74.914,457.471 19.099,470.319 19.099,470.319C15.712,471.203 13.81,472.689 13.81,475.608L13.81,578.106C13.81,581.025 13.711,585.529 19.099,583.775C39.307,573.203 67.301,570.43 100.52,583.553C131.117,570.849 163.546,573.099 183.193,583.775C189.909,587.425 189.624,581.025 189.624,578.106L189.624,475.608Z" style="fill:rgb(61,35,79);"/>
            </g>
            <g transform="matrix(5.21227,0,0,5.21227,-3797.9,-1427.26)">
                <text x="743.378px" y="298.685px" style="font-family:'LeagueSpartan-Bold', 'League Spartan';font-weight:700;font-size:12px;fill:white;">3</text>
            </g>
        </g>
    </g>
</svg>
