<?xml version="1.0" encoding="UTF-8" standalone="no"?>
<!DOCTYPE svg PUBLIC "-//W3C//DTD SVG 1.1//EN" "http://www.w3.org/Graphics/SVG/1.1/DTD/svg11.dtd">
<svg width="100%" height="100%" viewBox="0 0 199 199" version="1.1" xmlns="http://www.w3.org/2000/svg" xmlns:xlink="http://www.w3.org/1999/xlink" xml:space="preserve" xmlns:serif="http://www.serif.com/" style="fill-rule:evenodd;clip-rule:evenodd;stroke-linejoin:round;stroke-miterlimit:2;">
    <g transform="matrix(1,0,0,1,-4.97356,-674.807)">
        <g id="Travel" transform="matrix(1,0,0,1,4.01513,674.155)">
            <rect x="0.958" y="0.651" width="198.756" height="198.756" style="fill:none;"/>
            <g transform="matrix(1.23613,0,0,1.23613,-20.0373,-13.2419)">
                <g transform="matrix(1,0,0,1,-4.01513,-674.155)">
                    <path d="M62.168,765.308C58.445,757.433 56.318,751.173 56.318,743.1C56.318,718.221 76.517,698.023 101.395,698.023C126.273,698.023 146.471,718.221 146.471,743.1C146.471,752.026 143.871,758.523 139.386,767.356L108.521,829.085C107.152,831.825 104.352,833.555 101.289,833.555C98.226,833.555 95.426,831.825 94.056,829.085L62.168,765.308Z" style="fill:rgb(61,35,79);"/>
                </g>
                <g transform="matrix(1.40625,0,0,1.40625,-53.8523,-977.063)">
                    <circle cx="107.543" cy="745.618" r="22.207" style="fill:rgb(126,96,147);"/>
                </g>
            </g>
        </g>
    </g>
</svg>
